<svg id="Layer_1" data-name="Layer 1" xmlns="http://www.w3.org/2000/svg" viewBox="0 0 2063.23 1149.28"><defs><style>.cls-1{fill:#88ffa4;}.cls-2{fill:#86ffa3;}.cls-3{fill:#84ffa1;}.cls-4{fill:#82ffa0;}.cls-5{fill:#81ff9e;}.cls-6{fill:#7fff9d;}.cls-7{fill:#7dff9b;}.cls-8{fill:#7bff9a;}.cls-9{fill:#79ff98;}.cls-10{fill:#77ff97;}.cls-11{fill:#76ff95;}.cls-12{fill:#74ff94;}.cls-13{fill:#72ff92;}.cls-14{fill:#70ff91;}.cls-15{fill:#6eff8f;}.cls-16{fill:#6cff8e;}.cls-17{fill:#6bff8c;}.cls-18{fill:#69ff8b;}.cls-19{fill:#67ff89;}.cls-20{fill:#65ff88;}.cls-21{fill:#63ff86;}.cls-22{fill:#61ff85;}.cls-23{fill:#60ff83;}.cls-24{fill:#5eff82;}.cls-25{fill:#5cff80;}.cls-26{fill:#5aff7f;}.cls-27{fill:#58ff7d;}.cls-28{fill:#56ff7b;}.cls-29{fill:#54ff7a;}.cls-30{fill:#53ff78;}.cls-31{fill:#51ff77;}.cls-32{fill:#4fff75;}.cls-33{fill:#4dff74;}.cls-34{fill:#4bff72;}.cls-35{fill:#49ff71;}.cls-36{fill:#48ff6f;}.cls-37{fill:#46ff6e;}.cls-38{fill:#44ff6c;}.cls-39{fill:#42ff6b;}.cls-40{fill:#40ff69;}.cls-41{fill:#3eff68;}.cls-42{fill:#3dff66;}.cls-43{fill:#3bff65;}.cls-44{fill:#39ff63;}.cls-45{fill:#37ff62;}.cls-46{fill:#35ff60;}.cls-47{fill:#33ff5f;}.cls-48{fill:#32ff5d;}.cls-49{fill:#30ff5c;}.cls-50{fill:#2eff5a;}.cls-51{fill:#2cff59;}</style></defs><path class="cls-1" d="M965.93,427.29c-90.66-15.4-173.94-21.82-247.51-19.08-75.69,2.82-143.9,15.43-202.75,37.48-60.24,22.58-112.82,55.85-156.27,98.88-44.29,43.86-80.63,99.38-108,165C194.1,846.87,132.51,923.23,90.94,963.11c-21.5,20.63-40,33.88-53.51,42.12v1.16C51,998.15,69.76,984.8,91.56,963.9c26.52-25.43,52.32-56.88,76.68-93.49C198.69,824.66,227,770.68,252.3,710,358,456.8,591.32,364.66,965.76,428.28c91,15.47,192,16.2,300.08,2.18,111.68-14.49,226.38-44.21,340.93-88.33,176.14-67.84,343.61-166.64,493.89-290.53V50.35C1708.61,373.65,1256.09,476.6,965.93,427.29Z" transform="translate(-37.43 -50.35)"/><path class="cls-2" d="M1823.88,255c-288.07,160.1-609,229.45-858.49,185.53-45.35-8.09-89.33-14-130.71-17.63-63.89-5.5-123.72-5.29-177.8.63-55.24,6.05-106.18,18.23-151.41,36.2-46.11,18.33-87.69,43.24-123.56,74-36.52,31.34-68.23,69.72-94.26,114.08a602.45,602.45,0,0,0-34.52,68.87C195.85,852.27,133.9,927.78,92,967.25c-22,20.73-40.9,34-54.59,42.09v1.16C51.21,1002.35,70.34,989,92.64,968c26.71-25.16,52.67-56.27,77.14-92.45,30.59-45.22,58.94-98.55,84.27-158.5a602.13,602.13,0,0,1,34.46-68.76c102-173.87,280.66-247.28,546.09-224.44,41.35,3.6,85.29,9.53,130.61,17.61,118.87,20.93,257.93,16.34,402.14-13.29a1525.66,1525.66,0,0,0,226-65.46,1706.35,1706.35,0,0,0,231-106.89A1875.19,1875.19,0,0,0,2100.66,67v-1.3A1874.85,1874.85,0,0,1,1823.88,255Z" transform="translate(-37.43 -50.35)"/><path class="cls-3" d="M1820.74,272.38c-287,158.94-607,226.74-855.92,181.36C919.65,445.35,876,439,835.05,435c-127.73-12.32-237.9-.89-327.44,34-46.18,18-87.81,42.54-123.73,73-36.66,31.11-68.38,69.24-94.31,113.34a620.24,620.24,0,0,0-34.69,68.49C197.26,857.53,135,932.19,92.85,971.28c-22.41,20.79-41.62,34-55.42,42.05v1.16c13.89-8.07,33.33-21.36,56-42.42,26.86-24.91,53-55.68,77.58-91.42C201.8,836,230.32,783.34,255.8,724.21a619.08,619.08,0,0,1,34.63-68.38C391,484.8,574.17,410.83,835,436c40.92,4.06,84.55,10.37,129.69,18.75,118.3,21.57,256.73,17.75,400.35-11.05a1507.76,1507.76,0,0,0,225.52-64.34,1683.44,1683.44,0,0,0,230.71-106.08c96.91-54.05,191.94-119.18,279.44-190.91V81C2013,153,1917.83,218.23,1820.74,272.38Z" transform="translate(-37.43 -50.35)"/><path class="cls-4" d="M1817.62,289.82c-284.85,158-603.85,224.24-853.34,177.18-47.4-9.1-89.54-15.6-128.84-19.89C709.16,433.33,599.57,443.72,509.73,478c-93.66,35.73-167.1,97.93-218.29,184.87a640.53,640.53,0,0,0-34.86,68.06C198.83,862.87,136.18,936.68,93.8,975.36c-22.86,20.87-42.43,34-56.37,42v1.15c14-8,33.83-21.23,57-42.36,27-24.66,53.28-55.07,78-90.39,30.91-44.13,59.54-96.1,85.08-154.44a638.44,638.44,0,0,1,34.8-68c100.78-171.17,283.48-243.6,543-215.28,39.27,4.29,81.39,10.79,128.76,19.88,118,22.26,255.84,19.31,398.7-8.54a1479,1479,0,0,0,225-63.18A1639.42,1639.42,0,0,0,1818.1,290.69c78.35-43.46,159.57-97,234.9-154.83q24.3-18.65,47.66-37.75V96.64C2011.84,169.38,1914.68,236,1817.62,289.82Z" transform="translate(-37.43 -50.35)"/><path class="cls-5" d="M1814.55,307.16c-284.19,157.36-602.24,222-850.77,173-49.18-9.69-91-16.56-127.91-21-124.91-15.08-233.9-5.67-323.95,28-94,35.11-167.52,96.77-218.53,183.25a669.85,669.85,0,0,0-35,67.7C200.44,868.22,137.43,941.17,94.77,979.46c-23.33,20.93-43.26,34-57.34,41.93v1.14c14.16-7.88,34.32-21.08,57.94-42.27,27.21-24.41,53.61-54.47,78.47-89.35,31.08-43.59,59.82-94.87,85.44-152.42a667.8,667.8,0,0,1,35-67.6C393.7,502.27,581,429.39,835.75,460.15c36.86,4.45,78.68,11.32,127.83,21,117.27,23.13,254.52,21.05,396.92-6A1456.42,1456.42,0,0,0,1585.09,413,1614,1614,0,0,0,1815,308c77.36-42.83,158.29-96,234-153.72q26.4-20.13,51.6-40.68v-1.17C2011.43,185.42,1913.17,252.55,1814.55,307.16Z" transform="translate(-37.43 -50.35)"/><path class="cls-6" d="M1811.44,324.57c-283,156.38-600.13,219.5-848.2,168.84-50.53-10.34-90.88-17.38-127-22.16C582.13,437.56,395.07,509,295.3,677.84a699.35,699.35,0,0,0-35.18,67.3C202,873.53,138.67,945.65,95.74,983.53c-23.8,21-44.1,34.08-58.31,41.87v1.14c14.29-7.79,34.81-20.95,58.9-42.2,27.39-24.16,53.94-53.87,78.93-88.33C206.49,853,235.34,802.33,261,745.55a695.06,695.06,0,0,1,35.13-67.2c99.55-168.46,286.27-239.74,540-206.11C872.21,477,912.53,484.06,963,494.39c116.7,23.83,253.34,22.56,395.16-3.69a1435.78,1435.78,0,0,0,224.11-61.05,1588.84,1588.84,0,0,0,229.61-104.21c76.41-42.22,157-95,233.16-152.63q28.56-21.62,55.58-43.58v-1.29C2010.45,201.48,1910.2,270,1811.44,324.57Z" transform="translate(-37.43 -50.35)"/><path class="cls-7" d="M1808.36,342c-281.84,155.46-598,217-845.66,164.67-52.37-11.08-91.24-18.26-126-23.29-122.17-17.64-230-10.2-320.44,22.12-94.69,33.83-168.36,94.35-219,179.88a733.76,733.76,0,0,0-35.36,66.91c-58.23,126.61-122,197.88-165.18,235.37-24.27,21-44.94,34.09-59.28,41.78v1.14c14.41-7.7,35.32-20.81,59.88-42.11,27.56-23.9,54.27-53.27,79.38-87.3,31.39-42.52,60.36-92.47,86.11-148.46a729.29,729.29,0,0,1,35.31-66.82c99.61-168.32,285.79-238,538.42-201.52,34.77,5,73.62,12.21,126,23.28,116.15,24.55,252.18,24.1,393.4-1.3a1416.09,1416.09,0,0,0,223.63-59.94,1561.18,1561.18,0,0,0,229.31-103.53c82.8-45.68,189.37-115,291.82-198v-1.28C1998.07,226.73,1891.28,296.22,1808.36,342Z" transform="translate(-37.43 -50.35)"/><path class="cls-8" d="M1805.23,359.36c-280.64,154.52-595.8,214.52-843,160.49C923.86,511.48,879,502,837.07,495.43c-120.77-19-228-12.51-318.69,19.17-95,33.18-168.79,93.15-219.25,178.24a753.45,753.45,0,0,0-35.52,66.53C205.26,884.21,141.17,954.63,97.69,991.72c-24.75,21.1-45.79,34.09-60.26,41.69v1.13c14.53-7.59,35.81-20.67,60.84-42,43.58-37.16,107.8-107.7,166.24-232.74A751.58,751.58,0,0,1,300,693.35C398.38,527.44,589.07,457.5,836.91,496.42c41.93,6.59,86.75,16,125.06,24.41,115.59,25.26,251,25.63,391.63,1.07a1394.84,1394.84,0,0,0,223.14-58.82,1535.26,1535.26,0,0,0,229-102.84c73.42-40.43,155.6-93.85,231.4-150.44q32.72-24.42,63.55-49.37v-1.37C1995.86,243.73,1885.93,314.92,1805.23,359.36Z" transform="translate(-37.43 -50.35)"/><path class="cls-9" d="M1802.08,376.75c-279.51,153.61-593.71,212-840.48,156.32-47.86-10.81-87.29-19.29-124.17-25.55-58.58-9.94-115-13.66-167.72-11.07-53.59,2.63-103.78,11.82-149.18,27.32C425.17,556.3,351.33,615.71,301,700.35c-14.74,24.81-26.08,45.82-35.69,66.12C206.88,889.54,142.44,959.11,98.67,995.79c-25.22,21.15-46.65,34.09-61.24,41.6v1.11C52.08,1031,73.74,1018,99.26,996.61c43.85-36.75,108.43-106.44,167-229.71,9.6-20.27,20.92-41.26,35.65-66C400.47,535,590.6,466.65,837.26,508.51c36.86,6.25,76.27,14.73,124.12,25.53,115,26,249.85,27.17,389.88,3.44a1374.24,1374.24,0,0,0,222.66-57.71,1509.06,1509.06,0,0,0,228.64-102.14c72.46-39.82,154.32-92.86,230.53-149.36Q2068,202.35,2100.66,176v-1.1C1995.42,259.83,1884,331.73,1802.08,376.75Z" transform="translate(-37.43 -50.35)"/><path class="cls-10" d="M1799,394.15C1520.64,546.84,1207.4,603.72,961.1,546.29c-43.11-10.06-85-19.66-123.24-26.67C780,509.05,724.08,504.77,671.55,506.88c-53.36,2.15-103.46,10.91-148.89,26-46.62,15.53-88.68,37.88-125,66.45A392.25,392.25,0,0,0,303,707.85c-14.86,24.95-26.25,45.84-35.86,65.73-58.59,121.3-123.4,190-167.44,226.3C74,1021.07,52.14,1034,37.43,1041.36v1.11c14.77-7.39,36.8-20.35,62.81-41.77C144.38,964.35,209.31,895.52,268,774c9.59-19.86,21-40.72,35.82-65.65,97.29-163.52,291.87-232,533.86-187.76,38.23,7,80.09,16.61,123.2,26.66,61.75,14.4,129.23,21.62,200.19,21.62A1164.16,1164.16,0,0,0,1349,553.07a1356.34,1356.34,0,0,0,222.18-56.59A1484.34,1484.34,0,0,0,1799.49,395c87.77-48.15,199.33-121.42,301.17-203.24v-1.28C1998.71,272.49,1886.92,345.93,1799,394.15Z" transform="translate(-37.43 -50.35)"/><path class="cls-11" d="M1795.91,411.56c-204.13,111.75-427.19,171.2-628.76,171.2-72.23,0-141.75-7.65-206.58-23.25l-4.26-1c-41.9-10.09-81.49-19.62-118-26.78-57-11.18-112.51-16-164.86-14.39-53.11,1.66-103.09,10-148.56,24.78-46.68,15.17-88.8,37.2-125.21,65.49a385.84,385.84,0,0,0-94.73,107.77c-10.33,17.32-23.77,40.4-36,65.33C210.17,900.22,145,968.09,100.66,1004c-26.21,21.22-48.4,34-63.23,41.35v1.12c14.88-7.3,37.3-20.2,63.8-41.64C145.66,968.85,211,900.86,269.79,781.13c12.23-24.89,25.66-48,36-65.26,97.51-163.6,291.52-230.37,532.31-183.18,36.53,7.16,76.1,16.68,118,26.77l4.25,1c63.29,15.23,132.63,22.87,205.6,22.87a1154.74,1154.74,0,0,0,180.76-14.7,1335,1335,0,0,0,221.71-55.47,1460,1460,0,0,0,228-100.74c86.49-47.38,201-122.37,304.27-205.06v-1.27C1997.25,289,1882.54,364.1,1795.91,411.56Z" transform="translate(-37.43 -50.35)"/><path class="cls-12" d="M1792.8,428.94C1516.69,579.84,1205.38,633.59,960,572.73l-18.2-4.52c-36.54-9.1-71.06-17.69-103.17-24.41C725.21,520,617.44,522.63,527,551.28c-46.74,14.81-88.93,36.52-125.41,64.53a379.74,379.74,0,0,0-94.81,107.05c-12,20.09-24.72,41.87-36.19,64.94-58.8,117.76-124.32,184.78-168.94,220.26-26.7,21.24-49.28,34-64.22,41.22v1.11c15-7.19,37.8-20,64.79-41.5,44.71-35.55,110.36-102.68,169.27-220.64,11.45-23,24.14-44.8,36.15-64.88,96.33-161.26,294.77-228,530.82-178.59,32.08,6.72,66.6,15.3,103.13,24.4l18.2,4.52c113.35,28.12,246.34,31.76,384.6,10.53a1315.69,1315.69,0,0,0,221.23-54.35,1435,1435,0,0,0,227.66-100.06c68.58-37.47,151.64-90.73,227.89-146.11q41.73-30.31,79.49-60.47v-1.16C1996.89,305.07,1880.69,380.91,1792.8,428.94Z" transform="translate(-37.43 -50.35)"/><path class="cls-13" d="M1789.69,446.34c-275.11,150-585.47,202.23-830.2,139.61q-15.39-3.91-30.24-7.77c-31.88-8.22-62-16-90.19-22.29-112-25-219.17-23.46-309.88,4.56-46.79,14.45-89,35.84-125.59,63.57A373.73,373.73,0,0,0,308.7,730.37c-12.1,20.26-24.88,41.94-36.35,64.54-58.91,116-124.8,182.16-169.69,217.25-27.21,21.25-50.19,34-65.23,41.07v1.1c15.09-7.09,38.3-19.87,65.79-41.35,45-35.14,111-101.43,170-217.62,11.46-22.57,24.23-44.23,36.32-64.48,96.66-161.43,294.52-226.49,529.28-174,28.19,6.29,58.29,14.06,90.16,22.28q14.85,3.83,30.25,7.77c66.29,17,139.35,25.49,216.31,25.49a1138.28,1138.28,0,0,0,166.51-12.6,1298.37,1298.37,0,0,0,220.76-53.23,1413.08,1413.08,0,0,0,227.34-99.36c76.3-41.6,199.31-119.74,310.49-208.13v-1.27C1989.38,326.37,1866.1,404.68,1789.69,446.34Z" transform="translate(-37.43 -50.35)"/><path class="cls-14" d="M1786.59,463.73c-274,149.16-583.42,199.8-827.63,135.45-12.65-3.33-25.07-6.66-37.09-9.89-29.1-7.8-56.59-15.17-82.41-21.31-110.58-26.3-217.13-25.73-308.15,1.65-46.85,14.09-89.16,35.16-125.77,62.62a367.64,367.64,0,0,0-94.93,105.66c-12.8,21.32-25.23,42.27-36.52,64.15-59,114.21-125.24,179.52-170.42,214.2-27.71,21.26-51.09,33.91-66.24,40.91v1.1c15.19-7,38.79-19.7,66.79-41.18C149.5,982.35,215.88,916.93,275,802.52c11.28-21.85,23.7-42.79,36.49-64.1,96.91-161.66,294.2-225,527.76-169.47,25.8,6.14,53.29,13.51,82.38,21.31,12,3.22,24.44,6.55,37.09,9.89,112.19,29.56,244,34.83,381.09,15.23a1278.41,1278.41,0,0,0,220.27-52.11,1389,1389,0,0,0,227-98.66c65.74-35.79,150.27-89.6,226.12-143.93,26-18.61,56.19-41,87.47-65.83v-1.34C1988.06,342.74,1861.29,423.06,1786.59,463.73Z" transform="translate(-37.43 -50.35)"/><path class="cls-15" d="M1783.53,481.13c-273,148.3-581.4,197.38-825.06,131.28-15.8-4.29-31.15-8.57-46-12.7-25.6-7.14-49.77-13.87-72.62-19.64-109.12-27.54-215.06-28-306.38-1.27-46.9,13.72-89.28,34.46-126,61.65a361.72,361.72,0,0,0-95,104.92l-.61,1c-12.1,20.12-24.62,40.93-36.07,62.75-59.08,112.46-125.69,176.93-171.16,211.21-28.23,21.28-52,33.86-67.25,40.76v1.09c15.28-6.87,39.28-19.52,67.8-41,45.57-34.34,112.31-98.92,171.49-211.58,11.45-21.79,23.95-42.59,36-62.69l.61-1C409.16,586.44,610.8,523.28,839.61,581c22.83,5.76,47,12.5,72.59,19.63,14.85,4.14,30.2,8.41,46,12.7,111.6,30.28,242.77,36.36,379.33,17.59a1261,1261,0,0,0,219.79-51A1366.78,1366.78,0,0,0,1784,482c75.61-41.09,203.85-122,316.65-211.18v-1.28C1987.76,358.85,1859.25,440,1783.53,481.13Z" transform="translate(-37.43 -50.35)"/><path class="cls-16" d="M1780.37,498.52C1508.42,646,1201,693.5,957.89,625.63c-18.36-5.13-36-10.25-53.1-15.21-22.72-6.59-44.17-12.81-64.54-18.26-107.66-28.79-213-30.24-304.62-4.18-96.26,27.38-172.74,84.4-221.19,164.9l-3.35,5.55c-11.22,18.58-22.81,37.79-33.51,57.81C218.44,927,151.47,990.57,105.7,1024.44,77,1045.73,52.77,1058.24,37.43,1065v1.09c15.37-6.77,39.78-19.35,68.82-40.84,45.86-33.93,113-97.67,172.21-208.57,10.68-20,22.28-39.2,33.49-57.76l3.35-5.56C411.42,593.68,612.47,532.27,840,593.13c20.36,5.44,41.81,11.66,64.52,18.25,17.08,5,34.75,10.08,53.11,15.21,111,31,241.58,37.9,377.56,19.94a1242.74,1242.74,0,0,0,219.31-49.87,1344.81,1344.81,0,0,0,226.36-97.26c81.3-44.09,209.9-126.34,319.81-212.91v-1.27C1990.67,371.92,1861.8,454.37,1780.37,498.52Z" transform="translate(-37.43 -50.35)"/><path class="cls-17" d="M1777.25,515.89c-319,172.67-632.7,176.73-819.91,123-21.09-6.06-41.16-12.12-60.56-18-19.72-6-38.34-11.57-56.13-16.61-106.19-30-210.92-32.5-302.86-7.09-96.57,26.69-173.15,83.12-221.45,163.21l-6.12,10.12c-10.32,17-21,34.62-30.89,52.85-59.21,108.95-126.55,171.72-172.6,205.19-29.27,21.27-53.88,33.72-69.3,40.4V1070c15.45-6.66,40.28-19.17,69.84-40.65C153.42,995.85,220.89,933,280.21,823.83c9.89-18.21,20.55-35.8,30.87-52.82l6.12-10.11c95-157.6,300.4-218.71,523.18-155.68,17.78,5,36.4,10.66,56.11,16.61,19.41,5.86,39.48,11.92,60.57,18,110.44,31.72,240.39,39.43,375.81,22.29a1225.24,1225.24,0,0,0,218.83-48.75,1322.58,1322.58,0,0,0,226-96.58c48.55-26.28,132.76-77,223.48-140.73,29.62-20.79,64.32-46.05,99.45-73.62v-1.16C1990.48,387.93,1859.86,471.18,1777.25,515.89Z" transform="translate(-37.43 -50.35)"/><path class="cls-18" d="M1774.15,533.31C1456.32,705,1143.55,707.22,956.81,652.07c-23.94-7.08-46.45-14.16-68.22-21-16.66-5.23-32.39-10.18-47.54-14.74-51.61-15.41-103.66-24.1-154.72-25.84C635,588.74,585.72,594.07,540,606.34c-96.89,26-173.55,81.83-221.69,161.52q-3.94,6.51-7.95,13.07c-9.74,16-19.8,32.48-29.25,49.49-59.27,107.21-127,169.14-173.31,202.21-29.8,21.26-54.82,33.65-70.33,40.22v1.09c15.53-6.56,40.77-19,70.86-40.46,46.45-33.13,114.28-95.17,173.66-202.57,9.43-17,19.49-33.5,29.22-49.46q4-6.56,8-13.07c95.4-157.91,300.15-217.22,521.64-151.1,15.14,4.55,30.87,9.5,47.52,14.74,21.78,6.85,44.29,13.93,68.24,21,109.84,32.44,239.19,41,374,24.64a1208.09,1208.09,0,0,0,218.35-47.62,1301.82,1301.82,0,0,0,225.7-95.86c81.26-43.87,215-128.89,326-215.82v-1.26C1989.55,404.16,1855.53,489.38,1774.15,533.31Z" transform="translate(-37.43 -50.35)"/><path class="cls-19" d="M1771.1,550.71c-316.77,170.69-628.58,171.1-814.77,114.58-25.35-7.7-49-15.44-71.82-22.93-15.06-4.93-29.28-9.6-43-13.92A598.18,598.18,0,0,0,688.2,601c-51.12-2.23-100.26,2.68-146.08,14.59-97.19,25.27-173.94,80.54-221.94,159.84-3.38,5.57-6.82,11.17-10.27,16.79-9,14.66-18.33,29.83-27.08,45.38-59.31,105.45-127.36,166.51-174,199.17-30.34,21.25-55.79,33.54-71.38,40v1.08c15.61-6.44,41.27-18.79,71.91-40.24,46.75-32.72,115-93.89,174.36-199.53,8.74-15.53,18.05-30.69,27.06-45.35Q316,784.27,321,775.91C415.4,620,624.43,561.14,841.19,629.39c13.73,4.32,27.95,9,43,13.92,22.85,7.49,46.47,15.24,71.84,22.94,109.22,33.16,237.94,42.49,372.25,27a1192.42,1192.42,0,0,0,217.88-46.49,1282.27,1282.27,0,0,0,225.41-95.15c47.1-25.41,130.07-75.16,221.66-138.58,32.09-22.23,69.86-49.39,107.42-78.67V333C1984.73,423.34,1843.48,511.67,1771.1,550.71Z" transform="translate(-37.43 -50.35)"/><path class="cls-20" d="M1767.94,568.12C1452.4,737.88,1141.49,736.46,955.75,678.53c-27.55-8.6-52.92-17.27-77.46-25.66-12.73-4.35-24.76-8.46-36.44-12.34-100.28-33.25-206-38.86-297.57-15.78C446.78,649.31,370,704,322.09,782.93c-4,6.64-8.24,13.43-12.31,20-8.37,13.53-17,27.51-25.21,41.78-59.37,103.68-127.79,163.89-174.73,196.15-30.89,21.22-56.76,33.44-72.41,39.8v1.08c15.67-6.34,41.76-18.61,72.93-40,47-32.32,115.6-92.64,175.07-196.5,8.17-14.26,16.83-28.24,25.2-41.75,4.07-6.57,8.28-13.36,12.32-20,94.8-156.34,303.21-213.39,518.58-142,11.68,3.88,23.71,8,36.44,12.34,24.54,8.39,49.92,17.06,77.48,25.66,108.65,33.89,236.78,44,370.53,29.35a1174.81,1174.81,0,0,0,217.38-45.37A1260.61,1260.61,0,0,0,1768.42,569c73.29-39.43,216.27-128.46,332.24-218.59v-1.27C1984.64,439.39,1841.33,528.63,1767.94,568.12Z" transform="translate(-37.43 -50.35)"/><path class="cls-21" d="M1764.85,585.5c-314.43,168.81-624.38,165.57-809.62,106.23-29.57-9.46-56.48-19.05-82.51-28.32-10.62-3.79-20.66-7.36-30.47-10.78-98.78-34.46-203.83-41.1-295.79-18.68C448.65,657.79,371.73,711.89,324,790.4c-4.6,7.56-9.43,15.28-14.09,22.74-7.83,12.53-15.92,25.47-23.6,38.65C226.92,953.73,158.13,1013.1,110.89,1045c-31.44,21.2-57.74,33.34-73.46,39.59v1.07c15.73-6.22,42.26-18.42,74-39.8,47.34-31.91,116.26-91.39,175.77-193.52,7.67-13.16,15.76-26.1,23.58-38.62,4.67-7.46,9.5-15.19,14.11-22.75C418.66,636.58,631.28,580.1,841.92,653.57c9.81,3.42,19.84,7,30.47,10.78,26,9.27,53,18.86,82.54,28.33,108.05,34.61,235.56,45.57,368.76,31.69a1158.17,1158.17,0,0,0,216.91-44.23,1241.86,1241.86,0,0,0,224.72-93.76c72-38.66,218.73-129.88,335.34-220.12V365C1984,455.34,1836.92,546.79,1764.85,585.5Z" transform="translate(-37.43 -50.35)"/><path class="cls-22" d="M1761.69,602.85c-313.31,167.89-622.33,162.81-807.05,102.07-31.52-10.38-61.16-21.39-87.31-31.11q-12.69-4.72-24.68-9.13c-97.31-35.64-201.74-43.29-294-21.54C501.33,654.28,458.5,672.73,421.32,698a323.72,323.72,0,0,0-95.4,99.91c-5.14,8.44-10.58,17.05-15.83,25.37-7.3,11.56-14.84,23.52-22,35.63C228.64,959.08,159.5,1017.59,112,1049c-32,21.17-58.74,33.24-74.52,39.38v1.07c15.79-6.12,42.76-18.24,75-39.58,47.65-31.51,116.93-90.14,176.47-190.51,7.17-12.1,14.71-24,22-35.6,5.26-8.33,10.69-16.94,15.85-25.39C421.05,643.59,633.05,589,842.31,665.62q12,4.38,24.67,9.13c26.16,9.72,55.81,20.74,87.34,31.12,51.66,17,108.53,28.62,169,34.58,63.83,6.28,130.44,6.1,198-.56a1142.46,1142.46,0,0,0,216.43-43.1,1221.72,1221.72,0,0,0,224.4-93.06c73-39.12,221.91-131.3,338.5-221.35v-1.26C1984.05,471.27,1834.78,563.68,1761.69,602.85Z" transform="translate(-37.43 -50.35)"/><path class="cls-23" d="M1758.62,620.3c-312.23,167-620.29,160-804.48,97.89-33.56-11.33-64.68-23.39-92.13-34q-9.71-3.76-19-7.33C747.22,640,643.42,631.29,550.76,652.36c-47.33,10.77-90.22,28.89-127.48,53.87a318.74,318.74,0,0,0-95.47,99.21c-5.71,9.36-11.79,18.9-17.67,28.12C303.42,844.1,296.46,855,289.81,866c-59.44,98.44-129,156.1-176.8,187.14-32.55,21.11-59.74,33.1-75.58,39.13v1.06c15.83-6,43.24-18,76.08-39.32,48-31.1,117.6-88.87,177.16-187.5,6.64-11,13.59-21.9,20.32-32.45,5.88-9.22,12-18.76,17.68-28.13C422,653,638.16,599.11,842.69,677.75l19,7.33c27.46,10.65,58.59,22.72,92.17,34.06,51.29,17.31,107.81,29.3,168,35.66,63.59,6.71,130,7,197.24.7a1125.69,1125.69,0,0,0,216-42,1202.71,1202.71,0,0,0,224.08-92.35c65-34.74,221.38-130.31,341.57-222.72V397.2C1980.46,489.71,1823.69,585.52,1758.62,620.3Z" transform="translate(-37.43 -50.35)"/><path class="cls-24" d="M1755.52,637.68C1444.35,803.75,1137.25,795,953.6,731.4c-34.62-12-66.39-24.82-94.41-36.15l-15.74-6.35c-94.33-38-197.5-47.72-290.52-27.33-47.37,10.38-90.32,28.17-127.64,52.87a313.6,313.6,0,0,0-95.49,98.47c-6.17,10.1-12.79,20.36-19.2,30.28-6.27,9.73-12.76,19.79-19,29.92-59.49,96.72-129.38,153.54-177.54,184.17-33.13,21.07-60.77,33-76.65,38.88v1.07c15.88-5.89,43.73-17.83,77.15-39.08,48.25-30.69,118.29-87.61,177.89-184.52,6.21-10.12,12.7-20.17,19-29.89,6.41-9.93,13-20.2,19.22-30.31,92.27-151,312.56-204.15,512.41-123.6l15.75,6.35c28,11.33,59.8,24.18,94.46,36.17,50.92,17.63,107.09,30,167,36.74,63.36,7.14,129.48,7.8,196.53,2a1110.8,1110.8,0,0,0,215.47-40.84A1184.05,1184.05,0,0,0,1756,638.56c65.89-35.17,224.64-131.8,344.67-223.89v-1.26C1980.63,505.6,1821.49,602.46,1755.52,637.68Z" transform="translate(-37.43 -50.35)"/><path class="cls-25" d="M1752.41,655.08c-310.1,165.16-616.24,154.55-799.34,89.55C916,731.46,882.52,717.32,853,704.85L843.85,701C751,661.8,648.48,651.08,555.09,670.79c-47.43,10-90.44,27.46-127.85,51.89-39.47,25.77-71.63,58.65-95.57,97.74-6.56,10.65-13.62,21.48-20.45,32-5.91,9.07-12,18.44-17.91,27.85-59.46,95-129.71,151-178.16,181.18-33.71,21-61.8,32.83-77.72,38.62v1.07c15.91-5.77,44.22-17.63,78.21-38.82,48.55-30.28,118.94-86.35,178.52-181.52,5.88-9.4,12-18.77,17.9-27.83,6.83-10.48,13.9-21.32,20.46-32,92.89-151.61,312.54-202.78,510.94-119l9.15,3.86c29.54,12.48,63,26.62,100.12,39.8,50.56,17.95,106.38,30.67,165.92,37.81,63.13,7.57,129,8.65,195.81,3.22a1095.21,1095.21,0,0,0,215-39.69A1165.94,1165.94,0,0,0,1752.88,656c64.53-34.36,227.47-133.37,347.78-225.29v-1.25C1980.36,521.42,1817,620.67,1752.41,655.08Z" transform="translate(-37.43 -50.35)"/><path class="cls-26" d="M1749.28,672.44C1440.2,836.73,1135,824.27,952.51,757.82,913,743.45,877.93,728,847,714.32l-2.8-1.24a491.16,491.16,0,0,0-143.11-38.73c-49.25-5.62-97.65-3.72-143.85,5.65-47.47,9.63-90.54,26.75-128,50.9-39.59,25.5-71.77,58.14-95.63,97-7.1,11.53-14.8,23.2-22.25,34.48-5.37,8.12-10.91,16.52-16.27,24.93C235.6,980.57,165,1035.68,116.23,1065.5c-34.28,21-62.85,32.69-78.8,38.38v1.06c15.94-5.66,44.72-17.43,79.28-38.56,48.86-29.88,119.62-85.09,179.19-178.51,5.36-8.4,10.9-16.8,16.26-24.92,7.46-11.28,15.16-23,22.27-34.51C437.07,661.25,674,639,843.8,714l2.8,1.24c30.94,13.66,66,29.15,105.57,43.53,50.19,18.27,105.67,31.35,164.88,38.89,62.89,8,128.53,9.5,195.09,4.48a1079.64,1079.64,0,0,0,214.5-38.56,1148,1148,0,0,0,223.11-90.25c65.45-34.8,230.91-134.93,350.91-226.43v-1.25C1980.68,537.22,1814.82,637.59,1749.28,672.44Z" transform="translate(-37.43 -50.35)"/><path class="cls-27" d="M1746.21,689.89C1438.15,853.29,1134,839,952,771.09c-42-15.65-79.75-33.13-107.35-45.9A478.34,478.34,0,0,0,703,684.86c-49-6.1-97.3-4.63-143.57,4.38-98.15,19.1-177.66,71-223.88,146.2C328,847.66,319.73,860,311.76,871.89c-4.92,7.35-10,15-14.94,22.54-59.45,91.54-130.43,145.8-179.51,175.2-34.86,20.89-63.9,32.54-79.88,38.1v1.06c16-5.54,45.21-17.22,80.36-38.28C167,1041.05,238.09,986.69,297.66,895c4.93-7.59,10-15.18,14.93-22.53,8-11.92,16.23-24.25,23.78-36.48C439.64,668,675.7,648.2,844.25,726.1c27.61,12.77,65.43,30.26,107.42,45.93,49.82,18.59,104.95,32,163.84,40,62.65,8.43,128,10.36,194.37,5.74a1063.47,1063.47,0,0,0,214-37.42,1129.67,1129.67,0,0,0,222.79-89.53c64.16-34,233.92-136.61,354-227.74v-1.25C1980.64,553,1810.46,655.8,1746.21,689.89Z" transform="translate(-37.43 -50.35)"/><path class="cls-28" d="M1743.05,707.21c-307,162.56-610.23,146.38-791.59,77-40.28-15.36-76.05-32.31-106.41-47a464.57,464.57,0,0,0-140.26-41.92,451.26,451.26,0,0,0-143.24,3.09c-98.42,18.35-178,69.66-224.14,144.48-8,12.89-16.76,25.85-25.26,38.39-4.47,6.6-9.1,13.43-13.6,20.23-59.43,89.81-130.77,143.23-180.15,172.22-35.46,20.82-65,32.37-81,37.82v1.05c16-5.42,45.69-17,81.44-38,49.49-29,121-82.56,180.52-172.55,4.49-6.79,9.12-13.62,13.59-20.22,8.51-12.54,17.3-25.52,25.28-38.42C429.89,694.79,657,647.56,844.61,738.17c30.39,14.68,66.18,31.64,106.49,47,49.46,18.91,104.24,32.72,162.81,41a950.23,950.23,0,0,0,193.65,7,1049.17,1049.17,0,0,0,213.52-36.28,1112.63,1112.63,0,0,0,222.44-88.83c40.56-21.47,129.23-74,213.67-129,44-28.65,96.56-64.3,143.47-99.83V478C1981.05,568.74,1808.18,672.74,1743.05,707.21Z" transform="translate(-37.43 -50.35)"/><path class="cls-29" d="M1740,724.66c-306.1,161.7-608.31,143.66-789.06,72.85-39.6-15.51-74.1-32.3-105.47-48.15C759.92,706.21,657.24,691,563.71,707.67,465,725.26,385.32,776,339.32,850.42c-8.33,13.46-17.59,26.93-26.54,40-4.1,6-8.35,12.14-12.48,18.29-59.4,88.12-131.1,140.68-180.8,169.25-36.07,20.73-66.06,32.18-82.07,37.51v1c16-5.3,46.18-16.78,82.53-37.68,49.8-28.62,121.66-81.28,181.17-169.57,4.13-6.15,8.37-12.31,12.48-18.28,9-13,18.22-26.51,26.56-40C443.56,683.58,682.71,668.36,845,750.25c31.39,15.86,65.91,32.67,105.56,48.19,49.09,19.23,103.52,33.4,161.77,42.1a940.85,940.85,0,0,0,192.93,8.26,1035.47,1035.47,0,0,0,213-35.14,1095.53,1095.53,0,0,0,222.14-88.12c58-30.62,238.4-138.17,360.21-230.06v-1.25C1978.92,586.17,1798,694,1740,724.66Z" transform="translate(-37.43 -50.35)"/><path class="cls-30" d="M1736.9,742c-305.14,160.88-606.34,141-786.48,68.7-40.74-16.34-75.71-34.09-104.55-49.28-84-44.28-186.09-60.52-280-44.56-99,16.81-178.78,66.9-224.65,141-8.85,14.26-18.77,28.48-28.36,42.24-3.56,5.09-7.24,10.36-10.83,15.59A547.47,547.47,0,0,1,120.6,1082c-36.68,20.66-67.17,32-83.17,37.23v1c16-5.19,46.67-16.58,83.63-37.39A548.47,548.47,0,0,0,302.85,916.33c3.6-5.23,7.27-10.5,10.83-15.59,9.6-13.77,19.53-28,28.39-42.28,100.86-163,341.69-181.29,503.34-96.12,28.86,15.21,63.85,33,104.64,49.33,48.72,19.55,102.8,34.07,160.73,43.16A931.62,931.62,0,0,0,1303,864.35a1021.19,1021.19,0,0,0,212.57-34,1078.87,1078.87,0,0,0,221.8-87.42c58.76-31,242.09-139.78,363.3-231.08v-1.24C1979.53,602,1795.74,711,1736.9,742Z" transform="translate(-37.43 -50.35)"/><path class="cls-31" d="M1733.76,759.44c-304.19,160-604.39,138.26-783.9,64.52-41.73-17.14-77.3-35.94-103.62-50.41C763.72,728.18,662.31,710.9,568,726.14c-99.25,16.05-179.11,65.52-224.87,139.29-9.34,15-19.92,30-30.16,44.41-3.06,4.33-6.14,8.67-9.2,13-59.31,84.69-131.76,135.55-182.08,163.3-37.3,20.56-68.29,31.82-84.28,36.91v1.05c16-5.07,47.15-16.36,84.73-37.07,50.43-27.8,123-78.75,182.45-163.62q4.59-6.54,9.2-13C324.05,896,334.64,881,344,866c101.66-163.88,341.52-179.64,501.76-91.53,26.34,14.48,61.94,33.3,103.72,50.46,88.87,36.5,196.75,56,307.75,56q21.64,0,43.43-1A1007.65,1007.65,0,0,0,1512.74,847a1062.36,1062.36,0,0,0,221.48-86.71c32.82-17.26,120-67.73,211-125.89,48.22-30.81,106.21-69.34,155.44-106.31v-1.35C1980,617.4,1791.33,729.16,1733.76,759.44Z" transform="translate(-37.43 -50.35)"/><path class="cls-32" d="M1730.66,776.84c-303.27,159.22-602.46,135.57-781.33,60.35C906.08,819,870,799.06,846.64,785.64c-81-46.47-181.77-64.79-276.46-50.26C522.47,742.71,479,757.82,441,780.31c-40.3,23.87-72.59,55-96,92.65-9.94,16-21.31,31.75-32.32,47q-3.6,5-7.2,10c-59.26,83-132.07,133-182.72,160.3-37.93,20.47-69.42,31.62-85.39,36.6v1c15.93-4.94,47.62-16.13,85.83-36.75C174,1063.81,247,1013.71,306.36,930.58c2.39-3.35,4.8-6.68,7.2-10,11-15.28,22.39-31.09,32.35-47.07,101-162.45,344.67-176.22,500.23-87,23.4,13.43,59.51,33.4,102.8,51.6,89.89,37.8,199.48,58.07,312.11,58.07,12.4,0,24.86-.25,37.31-.74A994.09,994.09,0,0,0,1510,863.72a1046.64,1046.64,0,0,0,221.16-86c42.88-22.49,244-139.08,369.54-233.19v-1.24C1975.19,637.41,1773.59,754.31,1730.66,776.84Z" transform="translate(-37.43 -50.35)"/><path class="cls-33" d="M1727.55,794.23C1425.19,952.64,1127,927.11,948.79,850.41c-33.29-14.32-65.62-31.06-101.74-52.67-79.54-47.56-179.67-66.92-274.73-53.11-47.75,6.93-91.27,21.71-129.33,43.91-40.41,23.58-72.71,54.5-96,91.9-10.2,16.34-22,32.44-33.36,48q-3.17,4.32-6.32,8.65c-59.21,81.28-132.39,130.44-183.36,157.36-38.57,20.37-70.57,31.43-86.51,36.28v1c15.89-4.82,48.1-15.91,86.95-36.43,51.07-27,124.4-76.22,183.73-157.67q3.15-4.33,6.32-8.65c11.39-15.58,23.18-31.69,33.4-48.06,98.87-158.7,344.84-174.38,498.7-82.37,36.17,21.63,68.54,38.39,101.86,52.73,90.89,39.11,202.19,60.17,316.41,60.17q15.6,0,31.26-.52a980,980,0,0,0,211.11-30.57A1030.85,1030.85,0,0,0,1728,795.12c30.6-16,118.24-66.46,209.18-123.79,51.21-32.28,113-72.78,163.47-110.5v-1.36C1979.72,649.77,1779.78,766.87,1727.55,794.23Z" transform="translate(-37.43 -50.35)"/><path class="cls-34" d="M1724.44,811.64c-301.47,157.6-598.62,130.19-776.19,52a799.93,799.93,0,0,1-100.8-53.84c-78.05-48.62-177.55-69-273-55.92-47.78,6.55-91.35,21-129.5,42.92-40.52,23.3-72.85,54-96.07,91.16-10.63,17-23,33.64-35,49.72L309,944.2c-59.13,79.59-132.68,127.89-184,154.39-39.22,20.26-71.74,31.21-87.64,35.94v1c15.85-4.7,48.57-15.68,88.07-36.08,51.39-26.55,125.09-74.94,184.34-154.7l4.86-6.52c12-16.1,24.39-32.74,35-49.79,99.72-159.69,344.73-172.81,497.17-77.84a800.08,800.08,0,0,0,100.94,53.9c91.85,40.46,204.83,62.33,320.62,62.33q12.63,0,25.3-.35a966.88,966.88,0,0,0,210.62-29.42,1015.48,1015.48,0,0,0,220.51-84.57c38.55-20.15,250.84-142.16,375.76-235.27V576C1975.91,669.13,1763,791.47,1724.44,811.64Z" transform="translate(-37.43 -50.35)"/><path class="cls-35" d="M1721.3,829.06c-300.61,156.82-596.73,127.53-773.61,47.83a746.21,746.21,0,0,1-99.88-55C805,794.16,753.89,774.69,699.9,765.64c-52.9-8.87-107.55-7.65-158.07,3.53C458,787.74,390.1,832.59,350.77,895.45c-11.32,18.1-24.7,35.73-37.64,52.78l-2.34,3.08c-59.06,77.88-133,125.32-184.59,151.41-39.87,20.15-72.92,31-88.77,35.61v1c15.79-4.57,49-15.45,89.19-35.74,51.71-26.14,125.79-73.67,185-151.72l2.33-3.08c13-17.07,26.35-34.71,37.69-52.85,39.2-62.63,106.83-107.32,190.44-125.83,104.67-23.18,218.78-3.51,305.22,52.62a746.4,746.4,0,0,0,100,55c97.89,44.11,220.1,67,344.16,64.29a953.54,953.54,0,0,0,210.13-28.27A1000.59,1000.59,0,0,0,1721.76,830c39.09-20.39,255.19-144.08,378.9-236.22v-1.24C1977.14,684.61,1760.44,808.64,1721.3,829.06Z" transform="translate(-37.43 -50.35)"/><path class="cls-36" d="M1718.21,846.41c-299.74,156.05-594.83,124.88-771,43.66A698.56,698.56,0,0,1,848.24,834c-41.81-28.28-92.29-48.32-146-57.95-52.49-9.42-106.94-8.76-157.48,1.91-84.49,17.83-152.7,62.21-192.06,125-11.79,18.76-25.86,36.94-39.46,54.51l-.72.94c-59,76.24-133.27,122.83-185.21,148.49-40.53,20-74.11,30.76-89.9,35.24v1c15.72-4.44,49.5-15.2,90.32-35.36,52-25.71,126.47-72.39,185.58-148.79l.72-.93c13.62-17.6,27.7-35.79,39.52-54.6C392.78,841,460.76,796.73,545,779c103.46-21.84,219.44-.42,302.69,55.89A700,700,0,0,0,946.75,891c93.68,43.18,209.94,66.71,328.78,66.71q6.81,0,13.64-.11a940.93,940.93,0,0,0,209.64-27.12,985.42,985.42,0,0,0,219.86-83.16c38-19.8,259.65-146.49,382-237.25v-1.24C1978.54,699.54,1756.29,826.59,1718.21,846.41Z" transform="translate(-37.43 -50.35)"/><path class="cls-37" d="M1715.12,863.81c-299.22,155.44-601,118.42-768.47,39.48a656.6,656.6,0,0,1-98-57.17c-40.86-28.79-90.68-49.4-144.06-59.61-52.07-10-106.31-9.85-156.87.29-85.12,17.07-153.69,61-193.08,123.66-12.23,19.49-27.17,38.38-40.34,55.06-58.89,74.57-133.55,120.3-185.81,145.54a558.14,558.14,0,0,1-91,34.87v1a559.25,559.25,0,0,0,91.45-35c52.37-25.28,127.18-71.1,186.19-145.83,13.19-16.7,28.15-35.62,40.4-55.15,39.25-62.44,107.59-106.2,192.44-123.21,103.78-20.82,218.8,1.85,300.15,59.16a658.62,658.62,0,0,0,98.16,57.26c94.56,44.56,212.43,68.95,332.76,68.95l7.92,0a928.74,928.74,0,0,0,209.15-26,970.72,970.72,0,0,0,219.53-82.44c38.53-20,264.16-148.43,385.08-238.13v-1.24C1980,715,1753.71,843.77,1715.12,863.81Z" transform="translate(-37.43 -50.35)"/><path class="cls-38" d="M1712,881.2c-298.41,154.7-599.09,115.71-765.9,35.33a619.53,619.53,0,0,1-97.06-58.32C809.12,828.93,760,807.75,706.89,797c-51.65-10.49-105.68-11-156.26-1.34C464.9,811.93,396,855.38,356.54,918c-11.89,18.84-26,36.61-40.51,54.67-58.78,72.93-133.82,117.81-186.41,142.62a573.8,573.8,0,0,1-92.19,34.48v1a573,573,0,0,0,92.59-34.6c52.7-24.85,127.88-69.81,186.79-142.9,14.58-18.08,28.66-35.88,40.57-54.77,39.29-62.34,108-105.63,193.44-121.88C654.92,776.81,769,800.73,848.46,859a619.92,619.92,0,0,0,97.21,58.41c95.38,46,214.83,71.22,336.62,71.22h2.3a915.75,915.75,0,0,0,208.67-24.82,956.47,956.47,0,0,0,219.21-81.74c37.45-19.38,268.85-150.79,388.19-239.08v-1.24C1981.59,730,1749.52,861.79,1712,881.2Z" transform="translate(-37.43 -50.35)"/><path class="cls-39" d="M1708.89,898.6c-297.61,153.94-597.2,113-763.33,31.15a586.5,586.5,0,0,1-96.12-59.41c-39-29.78-87.48-51.52-140.23-62.88a405.25,405.25,0,0,0-155.62-3C467.23,820,397.93,863,358.46,925.47,346.1,945,331,963.72,317.79,979.74,259.1,1051,183.7,1095,130.77,1119.39a590,590,0,0,1-93.34,34.12v1a589.53,589.53,0,0,0,93.74-34.23c53-24.44,128.58-68.55,187.39-139.93,13.22-16,28.36-34.8,40.74-54.38,39.32-62.27,108.38-105.07,194.46-120.54,104.41-18.75,217.48,6.41,295.08,65.68a588,588,0,0,0,96.28,59.51c95.32,47,215.06,73.07,337.17,73.53a902.27,902.27,0,0,0,208.17-23.67,942.29,942.29,0,0,0,218.89-81c38-19.67,273.9-153.14,391.31-240V658.3C1983.55,745,1747,878.9,1708.89,898.6Z" transform="translate(-37.43 -50.35)"/><path class="cls-40" d="M1705.79,916C1409,1069.21,1110.48,1026.29,945,943a555.28,555.28,0,0,1-95.2-60.56c-76-60.36-188.34-86.83-293.29-69.07-87,14.71-156.67,57.2-196.18,119.63-12.11,19.1-26.78,37.18-40.84,53.87C261,1056.45,185.2,1099.62,131.94,1123.58a608.11,608.11,0,0,1-94.51,33.72v1a608,608,0,0,0,94.9-33.83c53.36-24,129.29-67.25,188-137,14.08-16.72,28.78-34.84,40.92-54C400.57,871.31,470,829,556.71,814.32c104.69-17.7,216.77,8.68,292.51,68.87a556,556,0,0,0,95.37,60.67c94.67,47.68,213.8,74.61,335.44,75.84a892.48,892.48,0,0,0,207.68-22.52,928.42,928.42,0,0,0,218.54-80.32c17.78-9.18,107.08-58.91,202.84-116.55,62.69-37.73,139.19-85.54,191.57-124.25v-1.14C1981.06,763.67,1727.79,904.62,1705.79,916Z" transform="translate(-37.43 -50.35)"/><path class="cls-41" d="M1702.69,933.4C1406.57,1085.86,1109.18,1041,944.5,956.2a527.25,527.25,0,0,1-94.26-61.69c-74.09-61.27-185.49-89-290.72-72.28-41.94,6.65-80.08,19.82-113.37,39.14-35.37,20.55-63.59,47.16-83.86,79.12-12.46,19.6-27.72,38-41,53.47-58.47,68-134.62,110.28-188.2,133.8a622.88,622.88,0,0,1-95.65,33.31v1a625,625,0,0,0,96-33.41c53.68-23.57,130-66,188.58-134.08,13.31-15.47,28.6-33.93,41.09-53.59,39.41-62.11,109.21-103.95,196.55-117.8,105-16.65,216,11,289.92,72.06A528.53,528.53,0,0,0,944,957.09c94,48.39,212.51,76.14,333.68,78.14a880.16,880.16,0,0,0,207.19-21.36,916.09,916.09,0,0,0,218.24-79.58c34.47-17.76,283.63-157.58,397.51-241.65V691.4C1987.16,775.35,1737.21,915.62,1702.69,933.4Z" transform="translate(-37.43 -50.35)"/><path class="cls-42" d="M1699.61,950.78C1404.29,1102.55,1108,1055.67,944,969.42c-34.7-18.26-66.1-39.39-93.32-62.82C778.41,844.42,668,815.5,562.5,831.11c-42.17,6.24-80.54,19.1-114,38.2-35.63,20.31-64,46.78-84.25,78.67-12.82,20.12-28,38.13-41.16,53.09C264.7,1067.41,188.17,1108.86,134.25,1132a644.13,644.13,0,0,1-96.82,32.89v1a644,644,0,0,0,97.19-33c54-23.14,130.7-64.68,189.17-131.16,13.18-15,28.39-33,41.25-53.21,39.46-62,109.63-103.4,197.61-116.42C667.86,816.53,778,845.36,850,907.36c27.28,23.47,58.74,44.65,93.51,62.94,93.35,49.1,211.24,77.67,331.93,80.45a867.71,867.71,0,0,0,206.7-20.2,902.06,902.06,0,0,0,217.91-78.88c19.87-10.21,285.34-157,400.59-242.34v-1.24C1985.85,793.3,1719.51,940.56,1699.61,950.78Z" transform="translate(-37.43 -50.35)"/><path class="cls-43" d="M1696.47,968.17c-294.62,151.08-589.79,102.21-753,14.46C908.64,964,877.56,942.44,851,918.7,780.63,855.64,671.23,825.49,565.51,840c-42.4,5.82-81,18.35-114.74,37.23-35.89,20.09-64.38,46.41-84.66,78.24-13.1,20.51-29,38.93-41.33,52.68-58.21,64.72-135.1,105.32-189.36,128a663.45,663.45,0,0,1-98,32.47v1a664,664,0,0,0,98.36-32.56c54.35-22.71,131.4-63.39,189.73-128.25C337.91,995.06,353.82,976.6,367,956,406.46,894,477,853.18,565.65,841c105.43-14.49,214.53,15.57,284.73,78.43C877,943.24,908.1,964.8,943,983.51c92.69,49.82,210,79.22,330.19,82.77a856.62,856.62,0,0,0,206.2-19,888.86,888.86,0,0,0,217.58-78.17c19.3-9.9,291.76-160.38,403.73-243.25v-1.24C1989.19,807.27,1715.81,958.25,1696.47,968.17Z" transform="translate(-37.43 -50.35)"/><path class="cls-44" d="M1892.53,873.14c-96.34,56.48-187.86,106.66-199.17,112.43-293.93,150.35-588,99.51-750.46,10.29-35-19.21-65.75-41.1-91.46-65.07-68.58-63.91-177-95.27-282.93-81.85-42,5.33-81.94,17.87-115.43,36.26-36.15,19.86-64.76,46-85.05,77.79-10.3,16.1-23.49,32.71-41.5,52.29-58.07,63.11-135.34,102.84-189.94,125.07a682.52,682.52,0,0,1-99.16,32v1A684,684,0,0,0,137,1141.28C191.64,1119,269.06,1079.21,327.27,1016c18.05-19.62,31.27-36.29,41.6-52.43,39-61,111.81-102.44,199.76-113.59,105.65-13.4,213.75,17.87,282.13,81.58,25.77,24,56.6,46,91.66,65.22,92,50.52,208.66,80.72,328.44,85a846,846,0,0,0,205.7-17.88,877.16,877.16,0,0,0,217.26-77.44c19.54-10,297.7-162.69,406.84-243.91v-1.29C2050,778.92,1963.12,831.76,1892.53,873.14Z" transform="translate(-37.43 -50.35)"/><path class="cls-45" d="M1690.26,1003c-293.19,149.68-586.12,96.84-747.89,6.11-35-19.64-65.5-41.91-90.53-66.19-33.56-32.55-78.08-57.57-128.76-72.36a386.92,386.92,0,0,0-151.53-12.69c-42.26,4.9-82.42,17.09-116.14,35.26-36.42,19.62-65.17,45.63-85.47,77.32-10.48,16.38-23.72,32.88-41.66,51.92-57.92,61.52-135.57,100.4-190.5,122.19a704,704,0,0,1-100.35,31.57v1a706.33,706.33,0,0,0,100.7-31.66c55-21.83,132.82-60.79,190.88-122.44,18-19.1,31.26-35.64,41.77-52.07,39.06-61,112.28-101.85,200.88-112.12,105.84-12.28,212.93,20.21,279.48,84.77,25.1,24.34,55.62,46.66,90.74,66.34,162,90.85,455.3,143.77,748.84-6.09,19-9.63,304.45-165.94,409.94-244.67V758C1995.78,836.49,1709.25,993.37,1690.26,1003Z" transform="translate(-37.43 -50.35)"/><path class="cls-46" d="M1687.11,1020.36c-292.42,149-584.24,94.16-745.28,1.95-35-20.07-65.18-42.72-89.59-67.32-32.68-33-76.55-58.52-126.86-73.86a383.71,383.71,0,0,0-150.8-14.27C485,876.3,411.15,916.8,371.85,978c-10.6,16.45-24.28,33.29-41.82,51.5-57.78,59.91-135.79,97.94-191.07,119.29A729.44,729.44,0,0,1,37.43,1179.9v1a728.4,728.4,0,0,0,101.87-31.19c55.38-21.39,133.54-59.49,191.45-119.54,17.59-18.25,31.31-35.15,41.94-51.65,39.13-60.94,112.76-101.28,202-110.68,106-11.18,212.08,22.48,276.84,87.83,24.47,24.66,54.69,47.37,89.8,67.49,89.17,51.05,218.35,90.66,365.54,90.66,119,0,249.8-25.9,380.7-92.59,19.32-9.83,312-169.64,413.09-245.44v-1.25C2000.25,850.1,1706.47,1010.51,1687.11,1020.36Z" transform="translate(-37.43 -50.35)"/><path class="cls-47" d="M1684,1037.76c-291.87,148.31-582.53,91.49-742.75-2.22-34.69-20.3-65.35-44-88.66-68.46-31.82-33.41-75.06-59.48-125-75.38a380.6,380.6,0,0,0-150.13-15.85c-90.12,8.56-164.36,48.52-203.69,109.65-10.72,16.64-24.45,33.35-42,51.11-57.63,58.33-136,95.5-191.63,116.4a752.41,752.41,0,0,1-102.72,30.64v1a751.74,751.74,0,0,0,103-30.71c55.71-21,134.25-58.18,192-116.65,17.59-17.8,31.36-34.57,42.12-51.27,39.16-60.87,113.13-100.67,202.94-109.19,106.21-10.09,211.34,24.75,274.36,90.92,23.37,24.55,54.1,48.28,88.88,68.63,90,52.65,204.8,85.31,323.22,91.94a813.48,813.48,0,0,0,204.21-14.4,839.88,839.88,0,0,0,216.28-75.29c3.14-1.59,316.51-170.67,416.16-246.12v-1.25C2001.82,866.41,1687.19,1036.16,1684,1037.76Z" transform="translate(-37.43 -50.35)"/><path class="cls-48" d="M1680.93,1055.15c-291.18,147.67-580.71,88.85-740.17-6.39-35.34-21.16-64.86-44.57-87.73-69.58-31-33.85-73.54-60.45-123.13-76.91a377.64,377.64,0,0,0-149.35-17.45C489.78,892.46,415.1,931.89,375.68,993c-10.86,16.83-24.65,33.41-42.15,50.7-57.47,56.77-136.24,93.08-192.19,113.54A778.29,778.29,0,0,1,37.43,1187.4v1a778.51,778.51,0,0,0,104.23-30.23c56.06-20.49,135-56.87,192.57-113.77,17.55-17.34,31.39-34,42.29-50.87,39.26-60.85,113.65-100.12,204.11-107.73,106.33-9,210.43,27.08,271.66,94,22.94,25.08,52.53,48.55,88,69.76,89.36,53.37,203.53,86.84,321.49,94.25a802.93,802.93,0,0,0,203.71-13.24,827.61,827.61,0,0,0,216-74.59c3.18-1.61,325.54-175.25,419.27-246.84V808C2007.86,879.16,1684.13,1053.53,1680.93,1055.15Z" transform="translate(-37.43 -50.35)"/><path class="cls-49" d="M1677.84,1072.55c-290.13,146.78-578.68,86-737.62-10.57-35.44-21.71-64.64-45.5-86.78-70.7-30.12-34.28-72.06-61.4-121.27-78.41a374.48,374.48,0,0,0-148.61-19c-91.39,6.72-166.47,45.6-206,106.68-11,17.07-24.89,33.53-42.32,50.31C278,1106,198.82,1141.47,142.53,1161.49a805,805,0,0,1-105.1,29.65v1a804,804,0,0,0,105.41-29.72c56.4-20,135.68-55.57,193.13-110.9,17.48-16.83,31.37-33.35,42.46-50.49,39.33-60.81,114.12-99.52,205.21-106.22,106.45-7.83,209.55,29.38,269.05,97.11,22.2,25.28,51.48,49.13,87,70.9,88.85,54,202.42,88.26,319.81,96.46a792.22,792.22,0,0,0,203.17-12,815.14,815.14,0,0,0,215.61-73.83c3.24-1.64,335-179.74,422.37-247.55v-1.27C2014.42,892,1681.09,1070.9,1677.84,1072.55Z" transform="translate(-37.43 -50.35)"/><path class="cls-50" d="M1674.73,1089.94c-289.77,146.25-577.07,83.46-735-14.74-35.49-22.1-64.38-46.27-85.89-71.83-29.36-34.7-70.74-62.33-119.65-79.89-46.36-16.65-97.54-23.75-148-20.54-43.24,2.75-84.5,13.19-119.33,30.19-37.64,18.37-67,43.56-87.33,74.88-11.05,17-25.35,33.83-42.48,49.91-57.14,53.66-136.65,88.25-193.28,107.82a831.5,831.5,0,0,1-106.29,29.14v1A833.4,833.4,0,0,0,144,1166.69c56.73-19.6,136.38-54.25,193.65-108,17.2-16.13,31.54-33,42.64-50.09,39.34-60.67,114.38-98.81,205.88-104.63C692.83,897.16,795.07,935.51,853,1004c21.57,25.63,50.54,49.87,86.12,72,40.73,25.32,89.26,47.45,140.34,64a767.83,767.83,0,0,0,177.7,34.81A782.34,782.34,0,0,0,1459.89,1164a803.88,803.88,0,0,0,215.29-73.12c3.29-1.66,345.75-184.94,425.48-248.28v-1.28C2022.25,904.06,1678,1088.27,1674.73,1089.94Z" transform="translate(-37.43 -50.35)"/><path class="cls-51" d="M1671.64,1107.33c-206.46,93.28-387.61,87.83-503.21,66.84-134.24-24.38-254.64-85.19-314.2-158.7-28.46-35.13-69.12-63.27-117.59-81.39-45.83-17.14-96.71-24.8-147.12-22.17C546,914.19,504.44,924.26,469.3,941c-38,18.13-67.54,43.18-87.88,74.47-46.93,72.21-138.94,118.33-207.86,144.3a873.7,873.7,0,0,1-136.13,38.81v1a874.75,874.75,0,0,0,136.46-38.89c43.94-16.55,82.79-35.64,115.46-56.73,40.85-26.37,72.12-56,92.91-88,39.47-60.72,115-98.32,207.31-103.15,106.68-5.59,207.79,34,263.88,103.19,28.38,35,71.17,68,123.75,95.36,56,29.14,122,51.17,191,63.69,77.4,14.06,157.58,16.48,238.31,7.21,90.25-10.36,179.57-35.3,265.52-74.13,3.63-1.94,358-190.86,428.58-249.08v-1.29C2031.74,915.36,1675.25,1105.4,1671.64,1107.33Z" transform="translate(-37.43 -50.35)"/></svg>