<svg class="bg-path" id="Layer_1" data-name="Layer 1" xmlns="http://www.w3.org/2000/svg" viewBox="0 0 2274.52 1326.83"><defs><style>.cls-1,.cls-10,.cls-11,.cls-12,.cls-13,.cls-14,.cls-15,.cls-16,.cls-17,.cls-18,.cls-19,.cls-2,.cls-20,.cls-21,.cls-22,.cls-23,.cls-24,.cls-25,.cls-26,.cls-27,.cls-28,.cls-29,.cls-3,.cls-30,.cls-31,.cls-32,.cls-33,.cls-34,.cls-35,.cls-36,.cls-37,.cls-38,.cls-39,.cls-4,.cls-40,.cls-41,.cls-42,.cls-43,.cls-44,.cls-45,.cls-46,.cls-47,.cls-48,.cls-49,.cls-5,.cls-50,.cls-51,.cls-6,.cls-7,.cls-8,.cls-9{fill:none;stroke-miterlimit:10;}.cls-1{stroke:#88ffa4;}.cls-2{stroke:#86ffa3;}.cls-3{stroke:#84ffa1;}.cls-4{stroke:#82ffa0;}.cls-5{stroke:#81ff9e;}.cls-6{stroke:#7fff9d;}.cls-7{stroke:#7dff9b;}.cls-8{stroke:#7bff9a;}.cls-9{stroke:#79ff98;}.cls-10{stroke:#77ff97;}.cls-11{stroke:#76ff95;}.cls-12{stroke:#74ff94;}.cls-13{stroke:#72ff92;}.cls-14{stroke:#70ff91;}.cls-15{stroke:#6eff8f;}.cls-16{stroke:#6cff8e;}.cls-17{stroke:#6bff8c;}.cls-18{stroke:#69ff8b;}.cls-19{stroke:#67ff89;}.cls-20{stroke:#65ff88;}.cls-21{stroke:#63ff86;}.cls-22{stroke:#61ff85;}.cls-23{stroke:#60ff83;}.cls-24{stroke:#5eff82;}.cls-25{stroke:#5cff80;}.cls-26{stroke:#5aff7f;}.cls-27{stroke:#58ff7d;}.cls-28{stroke:#56ff7b;}.cls-29{stroke:#54ff7a;}.cls-30{stroke:#53ff78;}.cls-31{stroke:#51ff77;}.cls-32{stroke:#4fff75;}.cls-33{stroke:#4dff74;}.cls-34{stroke:#4bff72;}.cls-35{stroke:#49ff71;}.cls-36{stroke:#48ff6f;}.cls-37{stroke:#46ff6e;}.cls-38{stroke:#44ff6c;}.cls-39{stroke:#42ff6b;}.cls-40{stroke:#40ff69;}.cls-41{stroke:#3eff68;}.cls-42{stroke:#3dff66;}.cls-43{stroke:#3bff65;}.cls-44{stroke:#39ff63;}.cls-45{stroke:#37ff62;}.cls-46{stroke:#35ff60;}.cls-47{stroke:#33ff5f;}.cls-48{stroke:#32ff5d;}.cls-49{stroke:#30ff5c;}.cls-50{stroke:#2eff5a;}.cls-51{stroke:#2cff59;}</style></defs><path class="cls-1" d="M-34.5,742.5s127-42,238-308,355-343,714-282,909-106,1322-554" transform="translate(34.66 401.84)"/><path class="cls-2" d="M-34.1,746.14S94.26,704.31,205.25,441.61a599.42,599.42,0,0,1,34.49-68.82C345.13,193.19,532.36,126.25,786.3,148.1q62.33,5.44,130.66,17.62c234.11,41.22,551.49-14.78,858.82-185.58,157.62-87.92,319.82-210.15,460-362" transform="translate(34.66 401.84)"/><path class="cls-3" d="M-33.7,749.78S95.34,707.84,207,448.72a616.37,616.37,0,0,1,34.66-68.43c105.1-178.79,294-244.3,545-220.1q61.68,6.12,129.73,18.75c232.5,42.39,549.17-11.37,856.25-181.41,154.4-86.12,320.85-209.87,459.47-359.75" transform="translate(34.66 401.84)"/><path class="cls-4" d="M-33.3,753.42s130.08-41.91,242-297.58a637.47,637.47,0,0,1,34.83-68c104.8-178,295.46-242.59,543.51-215.52,40.71,4.44,83.67,11.22,128.8,19.88,230.89,43.56,547.24-7.24,853.68-177.23,151.39-84,321.88-209.61,458.9-357.51" transform="translate(34.66 401.84)"/><path class="cls-5" d="M-32.9,757.06S98.23,715.18,210.48,463a665.59,665.59,0,0,1,35-67.65C350,218.13,542.37,154.78,787.47,184.37c40.29,4.86,82.93,12.15,127.87,21,229.18,45.21,545.05-3.59,851.11-173.06,148.23-82.07,322.9-209.34,458.33-355.26" transform="translate(34.66 401.84)"/><path class="cls-6" d="M-32.5,760.7S99.69,718.85,212.23,470.06a694.47,694.47,0,0,1,35.16-67.25C351.61,226.44,545.7,164.36,787.87,196.46c39.86,5.28,82.19,13,126.93,22.15,227.54,46.47,542.86,0,848.54-168.89,145.07-80.18,323.93-209.07,457.76-353" transform="translate(34.66 401.84)"/><path class="cls-7" d="M-32.1,764.34S101.17,722.52,214,477.17a729.49,729.49,0,0,1,35.34-66.86C353.23,234.75,549.05,174,788.26,208.55c39.44,5.7,81.46,13.86,126,23.28,225.89,47.74,540.66,3.7,846-164.72,141.91-78.28,325-208.8,457.18-350.77" transform="translate(34.66 401.84)"/><path class="cls-8" d="M-31.7,768S102.65,726.2,215.72,484.29c10.95-23.43,23-45.48,35.5-66.48C354.85,243.06,552.39,183.54,788.65,220.64c39,6.13,80.73,14.72,125.08,24.41,224.25,49,538.46,7.36,843.4-160.54C1895.87,8.12,2083.1-124,2213.74-264" transform="translate(34.66 401.84)"/><path class="cls-9" d="M-31.3,771.62S104.16,729.88,217.46,491.4c11-23.25,23.23-45.15,35.67-66.08C356.47,251.38,555.74,193.14,789,232.73c38.61,6.55,80,15.57,124.15,25.54,222.61,50.27,536.27,11,840.83-156.37,135.58-74.5,327-208.26,456-346.28" transform="translate(34.66 401.84)"/><path class="cls-10" d="M-30.9,775.26s136.57-41.7,250.11-276.75c11.14-23.07,23.41-44.82,35.84-65.69,103-173.13,304-230.08,534.38-188,38.19,7,79.27,16.42,123.22,26.67,221,51.53,534.08,14.66,838.26-152.19,132.41-72.63,328-208,455.47-344" transform="translate(34.66 401.84)"/><path class="cls-11" d="M-30.5,778.9S107.2,737.25,221,505.62c11.25-22.89,23.59-44.49,36-65.29C359.71,268,562.44,212.35,789.83,256.91c37.77,7.4,78.53,17.27,122.28,27.8,219.32,52.78,531.88,18.32,835.7-148C1877,65.94,2076.85-71,2202.7-205.1" transform="translate(34.66 401.84)"/><path class="cls-12" d="M-30.1,782.54s138.85-41.61,252.8-269.8C234,490,246.47,468.56,258.87,447.83,361.33,276.31,565.79,222,790.22,269c37.35,7.82,77.8,18.13,121.35,28.93,217.68,54,529.69,22,833.13-143.84C1870.76,85.21,2074.77-53.37,2199-185.46" transform="translate(34.66 401.84)"/><path class="cls-13" d="M-29.7,786.18s140-41.56,254.15-266.33c11.44-22.53,24-43.85,36.34-64.51C363,284.63,569.15,231.59,790.61,281.09c36.94,8.25,77.07,19,120.42,30.06,216,55.27,527.49,25.63,830.56-139.66,122.88-67,331.09-207.2,453.75-337.31" transform="translate(34.66 401.84)"/><path class="cls-14" d="M-29.3,789.82S111.88,748.32,226.19,527c11.54-22.35,24.14-43.52,36.51-64.12C364.57,292.94,572.51,241.22,791,293.18c36.52,8.68,76.34,19.82,119.49,31.2,214.4,56.49,525.3,29.27,828-135.5C1858.18,123.72,2070.6-18,2191.66-146.18" transform="translate(34.66 401.84)"/><path class="cls-15" d="M-28.9,793.46S113.46,752,227.94,534.07c11.64-22.17,24.32-43.2,36.67-63.73C366.19,301.25,575.87,250.86,791.39,305.27,827.5,314.38,867,325.94,910,337.6c212.76,57.72,523.1,32.93,825.43-131.32C1851.89,143,2068.52-.38,2188-126.54" transform="translate(34.66 401.84)"/><path class="cls-16" d="M-28.5,797.1s143.57-41.38,258.18-255.91c11.75-22,24.51-42.88,36.85-63.34,101.28-168.29,312.7-217.34,525.25-160.49,35.69,9.54,74.88,21.52,117.63,33.46,211.12,58.95,520.9,36.58,822.86-127.15,113.33-61.45,334.16-206.39,452-330.57" transform="translate(34.66 401.84)"/><path class="cls-17" d="M-28.1,800.74S116.68,759.42,231.43,548.3c11.85-21.81,24.69-42.55,37-62.95,101-167.47,314.16-215.19,523.74-155.9,35.27,10,74.14,22.37,116.69,34.59,209.48,60.17,518.71,40.24,820.29-123,110.14-59.61,335.19-206.13,451.46-328.33" transform="translate(34.66 401.84)"/><path class="cls-18" d="M-27.7,804.38s146-41.25,260.87-249c12-21.63,24.88-42.22,37.19-62.55,100.69-166.67,315.6-213,522.21-151.32C827.43,352,866,364.75,908.33,377.26c207.84,61.38,516.51,43.89,817.72-118.8,107-57.76,336.21-205.85,450.89-326.08" transform="translate(34.66 401.84)"/><path class="cls-19" d="M-27.3,808S120,766.85,234.92,562.52c12.07-21.45,25.06-41.9,37.35-62.16C372.67,334.5,589.33,289.5,793,353.63c34.44,10.84,72.67,24.05,114.84,36.85C1114,453.07,1422.1,438,1723,275.86,1826.7,219.93,2060.18,70.27,2173.26-48" transform="translate(34.66 401.84)"/><path class="cls-20" d="M-26.9,811.66s148.52-41.09,263.56-242c12.18-21.26,25.25-41.57,37.52-61.76C374.29,342.81,592.7,299.18,793.35,365.72c34,11.28,71.94,24.9,113.91,38,204.56,63.8,512.1,51.21,812.58-110.45,100.55-54.1,338.26-205.32,449.74-321.59" transform="translate(34.66 401.84)"/><path class="cls-21" d="M-26.5,815.3s149.8-41,264.91-238.55c12.29-21.09,25.43-41.25,37.69-61.38,99.81-164.24,320-206.5,517.64-137.56,33.62,11.72,71.22,25.74,113,39.11,202.92,65,509.9,54.86,810-106.27C1814.09,258.37,2056,105.6,2165.9-8.7" transform="translate(34.66 401.84)"/><path class="cls-22" d="M-26.1,818.94S125,778,240.16,583.86c12.39-20.91,25.61-40.93,37.85-61,99.52-163.43,321.42-204.3,516.13-133,33.19,12.16,70.48,26.58,112,40.25,201.28,66.18,507.7,58.51,807.44-102.11,94.15-50.45,340.31-204.78,448.6-317.1" transform="translate(34.66 401.84)"/><path class="cls-23" d="M-25.7,822.58S126.7,781.77,241.9,591c12.51-20.72,25.8-40.6,38-60.59C379.15,367.75,602.79,328.28,794.53,402c32.78,12.6,69.75,27.42,111.11,41.38,199.65,67.37,505.49,62.17,804.87-97.93,91-48.64,341.34-204.51,448-314.86" transform="translate(34.66 401.84)"/><path class="cls-24" d="M-25.3,826.22s153.72-40.7,269-228.14c12.62-20.54,26-40.27,38.19-60.2C380.77,376.06,606.16,338,794.92,414.08c32.37,13,69,28.26,110.18,42.51,198,68.55,503.29,65.83,802.31-93.76,87.73-46.82,342.35-204.24,447.45-312.61" transform="translate(34.66 401.84)"/><path class="cls-25" d="M-24.9,829.86S130.16,789.27,245.39,605.2c12.74-20.36,26.17-40,38.36-59.81,98.64-161,325.77-197.66,511.56-119.23,32,13.49,68.29,29.11,109.25,43.65,196.38,69.72,501.09,69.49,799.74-89.58,84.52-45,343.38-204,446.88-310.37" transform="translate(34.66 401.84)"/><path class="cls-26" d="M-24.5,833.5S131.91,793,247.14,612.31c12.86-20.17,26.35-39.63,38.52-59.42,98.35-160.2,327.22-195.42,510-114.64C827.24,452.19,863.26,468.19,904,483c194.75,70.9,498.89,73.15,797.17-85.41,81.31-43.22,344.4-203.7,446.31-308.12" transform="translate(34.66 401.84)"/><path class="cls-27" d="M-24.1,837.14s157.78-40.34,273-217.72c13-20,26.54-39.3,38.7-59,98-159.4,328.65-193.19,508.52-110.06,31.11,14.39,66.82,30.78,107.38,45.91,193.13,72.06,496.68,76.8,794.6-81.23,78.1-41.43,345.43-203.44,445.74-305.88" transform="translate(34.66 401.84)"/><path class="cls-28" d="M-23.7,840.78s159.16-40.2,274.33-214.25c13.1-19.8,26.72-39,38.86-58.63,97.75-158.59,330.09-190.93,507-105.47,30.7,14.84,66.09,31.61,106.45,47,191.5,73.22,494.48,80.46,792-77.06,74.87-39.63,346.45-203.17,445.16-303.63" transform="translate(34.66 401.84)"/><path class="cls-29" d="M-23.3,844.42s160.57-40,275.67-210.77C265.6,614,279.28,595,291.4,575.4c97.46-157.77,331.53-188.66,505.48-100.88,30.28,15.29,65.37,32.45,105.52,48.17,189.88,74.38,492.27,84.12,789.47-72.88,71.65-37.85,347.47-202.9,444.59-301.39" transform="translate(34.66 401.84)"/><path class="cls-30" d="M-22.9,848.06s162-39.9,277-207.3c13.35-19.43,27.09-38.33,39.2-57.85,97.16-157,333-186.39,504-96.3,29.86,15.74,64.64,33.28,104.59,49.31,188.25,75.52,490.07,87.77,786.9-68.72,68.42-36.07,348.5-202.63,444-299.14" transform="translate(34.66 401.84)"/><path class="cls-31" d="M-22.5,851.7S140.91,812,255.86,647.87c13.48-19.23,27.28-38,39.37-57.46,96.87-156.16,334.39-184.1,502.43-91.71,29.45,16.19,63.91,34.11,103.67,50.44,186.63,76.66,487.85,91.43,784.32-64.54,65.2-34.3,349.53-202.37,443.45-296.9" transform="translate(34.66 401.84)"/><path class="cls-32" d="M-22.1,855.34S142.76,815.79,257.61,655c13.6-19,27.46-37.68,39.53-57.06C393.72,442.56,633,416.1,798.05,510.79c29,16.65,63.19,34.94,102.74,51.57,185,77.8,485.64,95.1,781.76-60.37,62-32.53,350.54-202.09,442.87-294.65" transform="translate(34.66 401.84)"/><path class="cls-33" d="M-21.7,859S144.62,819.62,259.36,662.1c13.73-18.86,27.64-37.36,39.7-56.68,96.28-154.54,337.22-179.51,499.39-82.54,28.6,17.11,62.45,35.77,101.8,52.7,183.39,78.93,483.43,98.76,779.19-56.19C1738.17,488.62,2031,317.56,2121.74,227" transform="translate(34.66 401.84)"/><path class="cls-34" d="M-21.3,862.62s167.8-39.16,282.4-193.41c13.86-18.66,27.83-37,39.87-56.28,96-153.74,338.63-177.2,497.87-78A797.27,797.27,0,0,0,899.71,588.8c181.78,80.06,481.23,102.42,776.62-52,55.49-29,352.59-201.56,441.73-290.16" transform="translate(34.66 401.84)"/><path class="cls-35" d="M-20.9,866.26s169.29-39,283.75-189.94c14-18.46,28-36.71,40-55.89,95.7-152.93,340-174.88,496.35-73.37a743.63,743.63,0,0,0,99.94,55c180.17,81.18,479,106.08,774.05-47.84,52.25-27.26,353.62-201.29,441.16-287.92" transform="translate(34.66 401.84)"/><path class="cls-36" d="M-20.5,869.9s170.79-38.72,285.09-186.47c14.13-18.26,28.2-36.38,40.21-55.49,95.4-152.13,341.41-172.56,494.82-68.79a697.26,697.26,0,0,0,99,56.09c178.57,82.3,476.81,109.74,771.48-43.67,49-25.51,354.65-201,440.59-285.67" transform="translate(34.66 401.84)"/><path class="cls-37" d="M-20.1,873.54s172.32-38.48,286.44-183c14.27-18.06,28.38-36,40.37-55.1,95.11-151.31,342.8-170.22,493.3-64.2a655.61,655.61,0,0,0,98.08,57.22c177,83.41,474.6,113.4,768.92-39.49,45.76-23.77,355.66-200.76,440-283.43" transform="translate(34.66 401.84)"/><path class="cls-38" d="M-19.7,877.18S154.15,839,268.08,697.66c14.41-17.87,28.56-35.73,40.54-54.72,94.82-150.5,344.17-167.87,491.79-59.61a618.11,618.11,0,0,0,97.14,58.36c175.37,84.51,472.38,117.06,766.35-35.33,42.51-22,356.69-200.48,439.44-281.18" transform="translate(34.66 401.84)"/><path class="cls-39" d="M-19.3,880.82s175.4-38,289.13-176.05c14.55-17.66,28.74-35.41,40.71-54.32,94.52-149.7,345.53-165.52,490.26-55A585,585,0,0,0,897,654.91c173.77,85.61,470.17,120.72,763.78-31.15,39.26-20.31,357.72-200.22,438.87-278.94" transform="translate(34.66 401.84)"/><path class="cls-40" d="M-18.9,884.46s177-37.68,290.47-172.58c14.7-17.46,28.93-35.08,40.88-53.93,94.23-148.89,346.89-163.16,488.74-50.44a554.48,554.48,0,0,0,95.28,60.62c172.18,86.71,468,124.38,761.21-27,36-18.58,358.74-199.95,438.3-276.69" transform="translate(34.66 401.84)"/><path class="cls-41" d="M-18.5,888.1S160,850.72,273.32,719c14.84-17.25,29.11-34.75,41.05-53.53,93.93-148.08,348.22-160.8,487.21-45.86a526.92,526.92,0,0,0,94.35,61.75c170.59,87.81,465.75,128,758.65-22.8,32.74-16.87,359.76-199.68,437.72-274.45" transform="translate(34.66 401.84)"/><path class="cls-42" d="M-18.1,891.74S162,854.68,275.07,726.11c15-17.05,29.29-34.44,41.21-53.15C409.92,525.69,665.84,514.53,802,631.69c24.74,21.29,55.95,43.17,93.42,62.88,169,88.89,463.53,131.71,756.08-18.63,29.48-15.15,360.78-199.41,437.15-272.2" transform="translate(34.66 401.84)"/><path class="cls-43" d="M-17.7,895.38S164,858.65,276.81,733.22c15.13-16.83,29.48-34.11,41.38-52.75C411.54,534,669.07,524.41,802.37,643.78c24.29,21.76,55.22,44,92.49,64,167.42,90,461.31,135.38,753.5-14.45,26.22-13.45,361.81-199.15,436.58-270" transform="translate(34.66 401.84)"/><path class="cls-44" d="M-17.3,899S166,862.64,278.56,740.33c15.28-16.61,29.66-33.78,41.55-52.36,93.05-145.66,352.18-153.68,482.65-32.1,23.85,22.24,54.51,44.8,91.56,65.14,165.84,91.06,459.09,139,750.93-10.28,23-11.74,362.84-198.87,436-267.71" transform="translate(34.66 401.84)"/><path class="cls-45" d="M-16.9,902.66s184.94-36,297.2-155.22c15.44-16.39,29.85-33.45,41.72-52C414.78,550.63,675.5,544.17,803.15,668c23.41,22.71,53.79,45.62,90.63,66.27,164.27,92.13,456.88,142.71,748.37-6.1,19.68-10,363.85-198.61,435.43-265.47" transform="translate(34.66 401.84)"/><path class="cls-46" d="M-16.5,906.3s186.57-35.62,298.55-151.74c15.59-16.18,30-33.14,41.88-51.58,92.47-144,354.77-148.92,479.61-22.93,23,23.18,53.08,46.43,89.7,67.41C1056,840.65,1347.9,893.82,1639,745.52c16.41-8.35,364.88-198.34,434.86-263.22" transform="translate(34.66 401.84)"/><path class="cls-47" d="M-16.1,909.94s188.2-35.21,299.89-148.27c15.76-15.95,30.22-32.81,42.06-51.19C418,567.25,681.89,564,803.93,692.14c22.52,23.66,52.36,47.24,88.77,68.54,161.14,94.26,452.44,150,743.23,2.24,13.14-6.68,365.91-198.07,434.29-261" transform="translate(34.66 401.84)"/><path class="cls-48" d="M-15.7,913.58s189.85-34.78,301.24-144.8c15.91-15.72,30.4-32.48,42.22-50.79,91.88-142.43,357.3-144.15,476.56-13.76,22.07,24.13,51.65,48,87.84,69.67,159.59,95.32,450.22,153.7,740.66,6.41,9.86-5,366.93-197.8,433.72-258.73" transform="translate(34.66 401.84)"/><path class="cls-49" d="M-15.3,917.22s191.5-34.33,302.58-141.33c16.08-15.48,30.59-32.16,42.39-50.4,91.59-141.61,358.55-141.77,475.05-9.17,21.61,24.6,51,48.81,86.9,70.8,158.18,96.15,448,157.36,738.1,10.59,6.57-3.33,368-197.54,433.14-256.49" transform="translate(34.66 401.84)"/><path class="cls-50" d="M-14.9,920.86S178.26,887,289,783c16.24-15.24,30.77-31.83,42.56-50,91.29-140.81,359.6-139.24,473.52-4.59,21.13,25.11,50.24,49.65,86,71.93,156.56,97.32,445.78,161,735.53,14.76,3.29-1.66,369-197.26,432.57-254.24" transform="translate(34.66 401.84)"/><path class="cls-51" d="M-14.5,924.5s257-44,348-184,361-137,472,0,455,256,818,92c0,0,370-197,432-252" transform="translate(34.66 401.84)"/></svg>