<svg width="504.06874999999997px" height="249.2px" xmlns="http://www.w3.org/2000/svg" viewBox="-2.034374999999983 -49.599999999999994 504.06874999999997 249.2" style="background: rgba(230, 38, 31, 0);" preserveAspectRatio="xMidYMid"><defs><linearGradient id="editing-glowing-gradient" x1="0.9145187862775209" x2="0.08548121372247908" y1="0.7795964517353733" y2="0.22040354826462666"><stop offset="0" stop-color="#70aef7"></stop><stop offset="1" stop-color="#08c13b"></stop></linearGradient><filter id="editing-glowing" x="-100%" y="-100%" width="300%" height="300%"><feGaussianBlur in="SourceGraphic" result="blur" stdDeviation="6"></feGaussianBlur><feMerge><feMergeNode in="blur"></feMergeNode><feMergeNode in="SourceGraphic"></feMergeNode></feMerge></filter></defs><g filter="url(#editing-glowing)"><g transform="translate(72.09998893737793, 121.20000457763672)"><path d="M9.24-83.64L20.16-83.64L20.16 0L9.24 0L9.24-83.64ZM61.92 1.08L61.92 1.08Q54.36 1.08 48.42-1.50L48.42-1.50L48.42-1.50Q42.48-4.08 39-8.70L39-8.70L39-8.70Q35.52-13.32 35.16-19.32L35.16-19.32L46.44-19.32L46.44-19.32Q46.92-14.16 51.06-10.92L51.06-10.92L51.06-10.92Q55.20-7.68 61.92-7.68L61.92-7.68L61.92-7.68Q68.28-7.68 71.82-10.50L71.82-10.50L71.82-10.50Q75.36-13.32 75.36-17.88L75.36-17.88L75.36-17.88Q75.36-22.20 71.52-24.30L71.52-24.30L71.52-24.30Q67.68-26.40 59.64-28.44L59.64-28.44L59.64-28.44Q52.32-30.36 47.76-32.28L47.76-32.28L47.76-32.28Q43.20-34.20 39.96-37.98L39.96-37.98L39.96-37.98Q36.72-41.76 36.72-48L36.72-48L36.72-48Q36.72-53.16 39.60-57.48L39.60-57.48L39.60-57.48Q42.48-61.80 47.94-64.32L47.94-64.32L47.94-64.32Q53.40-66.84 60.60-66.84L60.60-66.84L60.60-66.84Q71.52-66.84 78.24-61.32L78.24-61.32L78.24-61.32Q84.96-55.80 85.44-46.20L85.44-46.20L74.52-46.20L74.52-46.20Q74.16-51.60 70.38-54.84L70.38-54.84L70.38-54.84Q66.60-58.08 60.24-58.08L60.24-58.08L60.24-58.08Q54.24-58.08 50.82-55.44L50.82-55.44L50.82-55.44Q47.40-52.80 47.40-48.48L47.40-48.48L47.40-48.48Q47.40-45.12 49.56-43.02L49.56-43.02L49.56-43.02Q51.72-40.92 54.84-39.78L54.84-39.78L54.84-39.78Q57.96-38.64 63.72-36.96L63.72-36.96L63.72-36.96Q70.92-35.04 75.24-33.18L75.24-33.18L75.24-33.18Q79.56-31.32 82.68-27.72L82.68-27.72L82.68-27.72Q85.80-24.12 85.80-18.12L85.80-18.12L85.80-18.12Q85.80-12.60 82.86-8.28L82.86-8.28L82.86-8.28Q79.92-3.96 74.52-1.44L74.52-1.44L74.52-1.44Q69.12 1.08 61.92 1.08L61.92 1.08ZM180.48-66.96L180.48-66.96Q188.16-66.96 194.16-63.78L194.16-63.78L194.16-63.78Q200.16-60.60 203.64-54.24L203.64-54.24L203.64-54.24Q207.12-47.88 207.12-38.76L207.12-38.76L207.12 0L196.32 0L196.32-37.20L196.32-37.20Q196.32-47.04 191.46-52.26L191.46-52.26L191.46-52.26Q186.60-57.48 178.32-57.48L178.32-57.48L178.32-57.48Q169.80-57.48 164.76-52.02L164.76-52.02L164.76-52.02Q159.72-46.56 159.72-36.24L159.72-36.24L159.72 0L148.92 0L148.92-37.20L148.92-37.20Q148.92-47.04 144.06-52.26L144.06-52.26L144.06-52.26Q139.20-57.48 130.92-57.48L130.92-57.48L130.92-57.48Q122.40-57.48 117.36-52.02L117.36-52.02L117.36-52.02Q112.32-46.56 112.32-36.24L112.32-36.24L112.32 0L101.40 0L101.40-65.76L112.32-65.76L112.32-56.28L112.32-56.28Q115.56-61.44 121.02-64.20L121.02-64.20L121.02-64.20Q126.48-66.96 133.08-66.96L133.08-66.96L133.08-66.96Q141.36-66.96 147.72-63.24L147.72-63.24L147.72-63.24Q154.08-59.52 157.20-52.32L157.20-52.32L157.20-52.32Q159.96-59.28 166.32-63.12L166.32-63.12L166.32-63.12Q172.68-66.96 180.48-66.96L180.48-66.96ZM220.92-33.12L220.92-33.12Q220.92-43.20 225-50.82L225-50.82L225-50.82Q229.08-58.44 236.22-62.64L236.22-62.64L236.22-62.64Q243.36-66.84 252.12-66.84L252.12-66.84L252.12-66.84Q260.76-66.84 267.12-63.12L267.12-63.12L267.12-63.12Q273.48-59.40 276.60-53.76L276.60-53.76L276.60-65.76L287.64-65.76L287.64 0L276.60 0L276.60-12.24L276.60-12.24Q273.36-6.48 266.94-2.70L266.94-2.70L266.94-2.70Q260.52 1.08 252 1.08L252 1.08L252 1.08Q243.24 1.08 236.16-3.24L236.16-3.24L236.16-3.24Q229.08-7.56 225-15.36L225-15.36L225-15.36Q220.92-23.16 220.92-33.12L220.92-33.12ZM276.60-33L276.60-33Q276.60-40.44 273.60-45.96L273.60-45.96L273.60-45.96Q270.60-51.48 265.50-54.42L265.50-54.42L265.50-54.42Q260.40-57.36 254.28-57.36L254.28-57.36L254.28-57.36Q248.16-57.36 243.12-54.48L243.12-54.48L243.12-54.48Q238.08-51.60 235.08-46.08L235.08-46.08L235.08-46.08Q232.08-40.56 232.08-33.12L232.08-33.12L232.08-33.12Q232.08-25.56 235.08-19.98L235.08-19.98L235.08-19.98Q238.08-14.40 243.12-11.46L243.12-11.46L243.12-11.46Q248.16-8.52 254.28-8.52L254.28-8.52L254.28-8.52Q260.40-8.52 265.50-11.46L265.50-11.46L265.50-11.46Q270.60-14.40 273.60-19.98L273.60-19.98L273.60-19.98Q276.60-25.56 276.60-33L276.60-33ZM311.76-76.44L311.76-76.44Q308.64-76.44 306.48-78.60L306.48-78.60L306.48-78.60Q304.32-80.76 304.32-83.88L304.32-83.88L304.32-83.88Q304.32-87 306.48-89.16L306.48-89.16L306.48-89.16Q308.64-91.32 311.76-91.32L311.76-91.32L311.76-91.32Q314.76-91.32 316.86-89.16L316.86-89.16L316.86-89.16Q318.96-87 318.96-83.88L318.96-83.88L318.96-83.88Q318.96-80.76 316.86-78.60L316.86-78.60L316.86-78.60Q314.76-76.44 311.76-76.44L311.76-76.44ZM306.12-65.76L317.04-65.76L317.04 0L306.12 0L306.12-65.76ZM335.64-88.80L346.56-88.80L346.56 0L335.64 0L335.64-88.80Z" fill="url(#editing-glowing-gradient)"></path></g></g><style>text {
  font-size: 64px;
  font-family: Arial Black;
  dominant-baseline: central;
  text-anchor: middle;
}</style></svg>