<svg width="216" height="68" viewBox="0 0 216 68" fill="none" xmlns="http://www.w3.org/2000/svg">
<path d="M151.332 5.17678C147.973 6.81885 144.992 9.1435 142.578 12.0029C137.845 17.2092 135.132 23.0519 137.152 24.5945C137.941 25.1923 139.73 25.2887 142.924 22.3577C145.933 19.7166 148.297 16.418 149.832 12.7163C151.929 7.56784 151.256 5.19606 151.256 5.13821M177.038 14.4904C171.804 11.7908 167.995 8.5127 164.012 6.46873C160.029 4.42476 157.836 3.74986 154.757 4.07766C154.327 4.14756 153.902 4.25071 153.487 4.38619C153.487 4.38619 155.084 9.78536 148.793 18.8868C142.501 27.9883 136.633 28.1425 135.074 25.5779C133.516 23.0133 135.574 17.4599 139.288 12.6199C142.363 8.99662 145.971 5.86275 149.986 3.32564C149.986 3.32564 147.811 2.01441 142.463 5.0418C133.476 10.6579 125.778 18.1167 119.874 26.9277C111.562 38.7866 109.908 45.3428 108.715 50.472C107.522 55.6012 108.599 61.1353 114.294 61.1353C119.99 61.1353 126.608 52.4195 128.475 49.3921C131.938 43.7616 134.247 35.1229 129.494 36.3184C127.147 36.8969 125.261 39.4808 124.088 41.9683C123.331 43.5631 122.757 45.2384 122.375 46.9625C120.723 47.6528 119.17 48.5606 117.758 49.6621C116.199 50.8253 114.738 52.1152 113.39 53.5186C113.735 49.7431 114.855 46.0798 116.68 42.7589C119.035 37.5889 123.736 33.8762 129.302 32.7897C132.381 32.539 136.363 35.1422 132.977 44.7643C129.591 54.3864 119.682 66.0717 109.215 66.226C99.5946 66.361 93.226 54.0007 106.656 32.4233C121.606 8.58983 138.922 1.26238 144.694 0.452504C150.467 -0.357371 152.198 2.13011 152.198 2.13011C155.608 0.723955 159.292 0.110825 162.973 0.336812C169.9 0.799599 175.248 5.7167 182.31 9.14903C180.386 10.9423 178.731 12.7935 177.134 14.5289M208.188 6.46873C203.417 9.57325 196.759 12.3692 190.391 11.7522C188.775 13.4298 187.043 15.3581 185.311 17.537C196.375 19.7353 206.053 12.8513 211.209 6.98936C213.083 4.89413 214.692 2.57561 216 0.0861346C213.66 2.51868 211.037 4.66148 208.188 6.46873ZM193.489 37.7261C193.572 37.5809 193.637 37.4253 193.681 37.2633C193.626 36.7408 193.204 36.3338 192.68 36.2991C191.622 36.2991 190.179 36.4534 186.427 40.6185C183.295 44.0791 180.601 47.9131 178.404 52.0339C176.249 55.8904 175.383 58.9178 176.634 59.747C177.037 59.9568 177.505 60.0051 177.942 59.882C178.77 59.6891 179.732 58.8985 181.175 57.2209C181.848 56.4303 182.618 55.2927 183.503 54.0779C185.985 50.6841 192.238 39.9629 193.489 37.8032M154.315 42.2961C154.95 40.6378 155.739 37.4175 154.065 36.1449C152.391 34.8722 147.734 37.9575 147.696 41.197C147.837 43.5529 149.438 45.5666 151.698 46.2298C152.141 46.3647 152.294 46.3455 152.506 45.9791C153.195 44.7959 153.8 43.5651 154.315 42.2961ZM150.909 48.428C149.791 47.9118 148.739 47.2645 147.773 46.4997C146.821 45.69 146.019 44.7172 145.406 43.6266C145.406 43.5302 145.291 43.6266 145.214 43.6266C144.221 44.8604 143.296 46.1479 142.443 47.4832C140.019 51.0697 136.286 58.455 139.673 59.7084C141.828 60.5183 145.445 56.7196 147.369 54.1935C148.714 52.4404 149.93 50.5907 151.005 48.6594C151.005 48.4666 151.005 48.4087 150.89 48.3702M189.217 56.8931C188.294 58.3586 187.293 61.1739 190.295 59.4192C193.989 57.2788 199.241 49.2764 199.241 49.2764H201.608C199.454 52.624 197.048 55.802 194.412 58.7828C190.66 62.9286 186.1 66.7081 182.868 66.3417C179.02 65.8982 180.29 60.9618 180.29 60.9618C180.29 60.9618 174.902 66.7466 171.189 66.2838C166.225 65.7825 167.783 59.4963 167.783 59.4963C167.783 59.4963 162.011 66.4959 158.163 66.2645C152.102 65.9175 153.622 58.5514 155.315 53.3258C156.22 50.5298 157.047 48.3509 157.047 48.3509C157.047 48.3509 156.45 48.5051 155.123 48.698C154.449 48.698 153.199 48.8715 153.199 48.8715C153.199 48.8715 150.659 53.3258 148.658 56.0061C146.657 58.6864 138.153 67.9421 133.15 66.1103C128.475 64.3941 130.014 57.2209 132.746 51.5325C136.71 43.2409 147.85 31.2856 154.296 32.8475C160.741 34.4094 154.449 46.6733 154.449 46.6733C154.867 46.7691 155.301 46.7691 155.719 46.6733C156.553 46.5061 157.37 46.2674 158.163 45.9598C162.111 37.7556 166.833 29.949 172.266 22.647C179.674 13.4491 194.451 -2.42062 200.261 1.43593C201.666 2.38078 201.031 5.62028 199.126 9.57325C198.279 9.82392 197.394 10.0746 196.509 10.2481C197.567 8.48959 198.364 6.58645 198.876 4.5983C199.742 -0.145258 188.659 9.88177 180.732 20.6801C175.967 27.1859 171.733 34.0664 168.072 41.2548C169.509 40.3896 170.879 39.4162 172.17 38.3431C175.697 35.3968 179.05 32.2485 182.214 28.9139C185.294 25.7857 188.185 22.476 190.872 19.0025C191.718 19.0025 192.565 18.8675 193.373 18.7326C190.485 22.6747 187.335 26.4176 183.945 29.9358C180.79 33.1368 177.365 36.5691 174.325 39.0952C171.668 41.3513 168.873 43.4379 165.955 45.3428C165.955 45.3428 159.009 59.3228 162.781 60.2291C164.993 60.769 169.361 54.0007 169.361 54.0007C169.361 54.0007 175.133 45.2656 178.519 41.3319C183.214 35.9906 187.255 32.9054 191.295 32.8283C192.869 32.9861 194.264 33.9089 195.028 35.2964L196.124 33.5803H202.974C202.974 33.5803 190.237 55.2348 189.217 56.8738M208.188 6.46873C203.417 9.57325 196.759 12.3692 190.391 11.7522C188.775 13.4298 187.043 15.3581 185.311 17.537C196.375 19.7353 206.053 12.8513 211.209 6.98936C213.083 4.89413 214.692 2.57561 216 0.0861346C213.66 2.51868 211.037 4.66148 208.188 6.46873ZM196.452 62.2537H197.491C197.765 62.2119 198.044 62.2119 198.318 62.2537C198.629 62.3787 198.823 62.6905 198.799 63.025C198.811 63.2601 198.693 63.4826 198.491 63.6035C198.359 63.6943 198.207 63.7536 198.049 63.7771C198.259 63.7813 198.453 63.8896 198.568 64.0663C198.667 64.202 198.726 64.362 198.741 64.5291V64.9533C198.741 64.9533 198.741 65.1076 198.741 65.1269H198.26V64.7798C198.26 64.4327 198.26 64.2013 197.972 64.1049C197.802 64.0107 197.607 63.9704 197.414 63.9892H196.99V65.1654H196.452V62.2537ZM198.26 63.1793C198.26 62.9479 198.26 62.7937 198.068 62.7358C197.869 62.6455 197.651 62.6058 197.433 62.6201H196.99V63.6999H197.452C197.618 63.7276 197.787 63.7276 197.952 63.6999C198.139 63.6221 198.26 63.4396 198.26 63.2372M200.184 63.8156C200.191 65.0583 199.363 66.1498 198.166 66.4744C196.969 66.799 195.704 66.2752 195.085 65.1986C194.466 64.1219 194.648 62.7625 195.528 61.8874C196.602 60.849 198.303 60.849 199.376 61.8874C199.898 62.3906 200.184 63.0904 200.165 63.8156M197.433 61.4631C196.81 61.4571 196.211 61.7081 195.778 62.1573C195.326 62.5887 195.075 63.1901 195.086 63.8156C195.078 64.4519 195.328 65.064 195.778 65.5125C196.215 65.9547 196.812 66.1985 197.433 66.1874C198.075 66.2304 198.705 66.0031 199.173 65.5602C199.641 65.1173 199.902 64.4989 199.896 63.8542C199.914 63.2311 199.669 62.6292 199.222 62.1959C198.782 61.7456 198.177 61.4949 197.548 61.5017M112.524 17.1514H106.04L102.365 23.0905H108.83L112.524 17.1514ZM81.7393 37.7068C84.51 33.8502 92.11 20.6416 92.11 20.6416C92.0391 20.1196 91.6143 19.718 91.0903 19.6774C90.032 19.6774 88.3004 19.9859 84.7986 24.3631C81.7536 27.9442 79.0241 31.7829 76.6406 35.8364C74.4857 39.6929 73.5236 42.5853 74.7165 43.3374C75.1233 43.535 75.5865 43.5828 76.0249 43.4723C77.4237 42.9126 78.6279 41.9539 79.4882 40.7149C80.1809 39.9436 80.9313 38.7866 81.8356 37.6489M47.0486 19.716C45.2592 18.3662 40.6992 21.5286 40.6799 24.7873C40.6607 28.0461 44.7975 29.1452 45.3362 29.1452C45.5859 29.2263 45.8583 29.122 45.9904 28.8946C46.1058 28.6439 46.6638 27.6026 47.2987 25.9636C47.9337 24.3246 48.7225 21.0658 47.0486 19.7931M44.3549 31.2471C43.1032 30.8561 41.9068 30.3052 40.7954 29.608C39.7388 28.9116 38.8777 27.9557 38.2942 26.8313C38.2942 26.7156 38.1595 26.8313 38.0825 26.8313C38.0055 26.8313 37.6592 27.4098 35.2349 30.9771C32.8106 34.5444 29.2511 41.9683 32.6182 43.2024C34.7731 44.0123 38.3904 40.1943 40.3144 37.6875C41.794 35.7154 43.1622 33.6618 44.4127 31.5363C44.5089 31.3242 44.4127 31.2664 44.2972 31.2278M97.2665 33.4067H99.6331C99.6331 33.4067 87.7424 50.6455 81.0082 49.8742C77.2755 49.4307 78.3722 44.7836 78.3722 44.7836C78.3722 44.7836 73.1003 50.9733 68.271 49.7392C63.8841 48.6015 66.7125 41.2934 66.7125 41.2934C66.2122 41.4862 56.7074 52.2267 50.0309 49.6621C43.3544 47.0975 46.6638 37.9767 48.1068 35.2772C49.1843 33.0018 50.4157 30.765 50.4157 30.765C50.4157 30.765 49.3382 31.0735 48.6648 31.2278L46.9909 31.5749C46.9909 31.5749 43.6815 36.9548 41.6613 39.6543C39.641 42.3539 31.1751 51.5904 26.0379 49.7392C20.9007 47.8881 22.1898 40.8113 25.0759 35.1808C29.6744 26.0214 40.603 14.7989 47.1833 16.4958C53.7636 18.1926 48.3377 28.991 48.3377 28.991C48.3377 28.991 49.6461 29.1838 52.8208 27.0627C57.4 23.9389 63.4223 15.4931 69.9449 16.5343C73.0041 16.9778 75.8517 20.1402 71.9651 26.1757C70.6953 28.104 68.6173 29.8201 67.0011 28.104C66.0006 27.0627 66.8664 25.1151 67.9246 23.8039C68.7579 22.7125 70.0766 22.1059 71.4456 22.1842C71.4456 22.1842 72.5231 19.716 69.791 19.7545C67.5591 19.7545 61.96 24.9802 58.7854 30.2251C55.8608 35.0458 51.4547 43.2409 55.8993 45.015C59.9398 46.654 67.6553 37.4754 71.2917 32.6547C74.9282 27.834 83.0092 16.92 89.8396 16.4765C91.3303 16.4631 92.7325 17.1837 93.5915 18.4048L94.3804 17.1514H101.211C101.211 17.1514 88.3389 38.6902 87.3383 40.2907C86.5495 41.5633 85.4143 44.4365 88.4158 42.836C91.4174 41.2355 97.3819 33.4067 97.3819 33.4067M93.6108 67.9036C88.5699 64.4254 82.545 62.6674 76.429 62.8901C73.0687 62.9801 69.9527 64.6705 68.0401 67.4408C65.4426 62.8901 60.3438 60.0941 52.3205 60.1519C39.4486 60.3062 26.6729 66.2645 16.5523 66.2645C6.93203 66.2645 -0.225456 60.1519 0.00543035 49.315C0.390242 30.2829 16.4561 13.1406 28.443 5.40817C35.3311 0.973138 41.1033 -0.376652 44.8937 0.0861346C46.6901 0.358 48.2381 1.49802 49.0336 3.13494C49.8292 4.77186 49.7704 6.69621 48.8765 8.28131C45.798 15.1652 41.565 14.5868 41.719 11.2894C41.8427 9.54556 42.8042 7.97068 44.2972 7.06649C45.062 6.66125 45.9141 6.44943 46.7792 6.44944C47.3949 5.94809 47.8567 2.18795 42.9311 3.42205C38.0055 4.65615 32.0602 9.5154 26.3842 15.7823C20.7083 22.0492 11.9346 33.9274 9.70267 46.4997C8.68293 52.2846 9.37558 62.8129 23.0364 62.678C34.5807 62.678 51.7048 54.9649 67.4051 55.0805C72.8703 55.0468 78.2403 56.514 82.9323 59.3228C86.9299 61.6272 90.5347 64.5565 93.6108 68" fill="#F40009"/>
</svg>
